  0
SECTION
  2
BLOCKS
  0
ENDSEC
  0
SECTION
  2
ENTITIES
  0
LINE
  8
0
 10
-235
 11
-235
 20
-221
 21
-206.999
  0
LINE
  8
0
 10
-235
 11
-228
 20
-206.999
 21
-206.999
  0
LINE
  8
0
 10
-228
 11
-228
 20
-206.999
 21
-199.999
  0
LINE
  8
0
 10
-228
 11
-221
 20
-199.999
 21
-199.999
  0
LINE
  8
0
 10
-221
 11
-221
 20
-199.999
 21
-192.999
  0
LINE
  8
0
 10
-221
 11
-214
 20
-192.999
 21
-192.999
  0
LINE
  8
0
 10
-214
 11
-214
 20
-192.999
 21
-185.999
  0
LINE
  8
0
 10
-214
 11
-206.999
 20
-185.999
 21
-185.999
  0
LINE
  8
0
 10
-206.999
 11
-206.999
 20
-185.999
 21
-213.999
  0
LINE
  8
0
 10
-206.999
 11
-199.999
 20
-213.999
 21
-213.999
  0
LINE
  8
0
 10
-199.999
 11
-199.999
 20
-213.999
 21
-221
  0
LINE
  8
0
 10
-199.999
 11
-206.999
 20
-221
 21
-221
  0
LINE
  8
0
 10
-206.999
 11
-206.999
 20
-221
 21
-235
  0
LINE
  8
0
 10
-206.999
 11
-214
 20
-235
 21
-235
  0
LINE
  8
0
 10
-214
 11
-214
 20
-235
 21
-221
  0
LINE
  8
0
 10
-214
 11
-235
 20
-221
 21
-221
  0
LINE
  8
0
 10
-235
 11
-235
 20
6
 21
938
  0
LINE
  8
0
 10
-235
 11
-153
 20
938
 21
938
  0
LINE
  8
0
 10
-153
 11
-153
 20
938
 21
826.5
  0
LINE
  8
0
 10
-153
 11
-195.5
 20
826.5
 21
826.5
  0
LINE
  8
0
 10
-195.5
 11
-195.5
 20
826.5
 21
822.5
  0
LINE
  8
0
 10
-195.5
 11
-153
 20
822.5
 21
822.5
  0
LINE
  8
0
 10
-153
 11
-153
 20
822.5
 21
709
  0
LINE
  8
0
 10
-153
 11
-195.5
 20
709
 21
709
  0
LINE
  8
0
 10
-195.5
 11
-195.5
 20
709
 21
705
  0
LINE
  8
0
 10
-195.5
 11
-153
 20
705
 21
705
  0
LINE
  8
0
 10
-153
 11
-153
 20
705
 21
591.5
  0
LINE
  8
0
 10
-153
 11
-195.5
 20
591.5
 21
591.5
  0
LINE
  8
0
 10
-195.5
 11
-195.5
 20
591.5
 21
587.5
  0
LINE
  8
0
 10
-195.5
 11
-153
 20
587.5
 21
587.5
  0
LINE
  8
0
 10
-153
 11
-153
 20
587.5
 21
474
  0
LINE
  8
0
 10
-153
 11
-195.5
 20
474
 21
474
  0
LINE
  8
0
 10
-195.5
 11
-195.5
 20
474
 21
470
  0
LINE
  8
0
 10
-195.5
 11
-153
 20
470
 21
470
  0
LINE
  8
0
 10
-153
 11
-153
 20
470
 21
356.5
  0
LINE
  8
0
 10
-153
 11
-195.5
 20
356.5
 21
356.5
  0
LINE
  8
0
 10
-195.5
 11
-195.5
 20
356.5
 21
352.5
  0
LINE
  8
0
 10
-195.5
 11
-153
 20
352.5
 21
352.5
  0
LINE
  8
0
 10
-153
 11
-153
 20
352.5
 21
239
  0
LINE
  8
0
 10
-153
 11
-195.5
 20
239
 21
239
  0
LINE
  8
0
 10
-195.5
 11
-195.5
 20
239
 21
235
  0
LINE
  8
0
 10
-195.5
 11
-153
 20
235
 21
235
  0
LINE
  8
0
 10
-153
 11
-153
 20
235
 21
121.5
  0
LINE
  8
0
 10
-153
 11
-195.5
 20
121.5
 21
121.5
  0
LINE
  8
0
 10
-195.5
 11
-195.5
 20
121.5
 21
117.5
  0
LINE
  8
0
 10
-195.5
 11
-153
 20
117.5
 21
117.5
  0
LINE
  8
0
 10
-153
 11
-153
 20
117.5
 21
6
  0
LINE
  8
0
 10
-153
 11
-235
 20
6
 21
6
  0
LINE
  8
0
 10
-228
 11
-228
 20
-117.5
 21
-110.499
  0
LINE
  8
0
 10
-228
 11
-221
 20
-110.499
 21
-110.499
  0
LINE
  8
0
 10
-221
 11
-221
 20
-110.499
 21
-82.5
  0
LINE
  8
0
 10
-221
 11
-228
 20
-82.5
 21
-82.5
  0
LINE
  8
0
 10
-228
 11
-228
 20
-82.5
 21
-75.499
  0
LINE
  8
0
 10
-228
 11
-221
 20
-75.499
 21
-75.499
  0
LINE
  8
0
 10
-221
 11
-221
 20
-75.499
 21
-68.499
  0
LINE
  8
0
 10
-221
 11
-213.999
 20
-68.499
 21
-68.499
  0
LINE
  8
0
 10
-213.999
 11
-213.999
 20
-68.499
 21
-110.499
  0
LINE
  8
0
 10
-213.999
 11
-206.999
 20
-110.499
 21
-110.499
  0
LINE
  8
0
 10
-206.999
 11
-206.999
 20
-110.499
 21
-117.5
  0
LINE
  8
0
 10
-206.999
 11
-228
 20
-117.5
 21
-117.5
  0
LINE
  8
0
 10
-227.999
 11
-220.999
 20
-213.999
 21
-207
  0
LINE
  8
0
 10
-220.999
 11
-214
 20
-207
 21
-200
  0
LINE
  8
0
 10
-214
 11
-214
 20
-200
 21
-213.999
  0
LINE
  8
0
 10
-214
 11
-227.999
 20
-213.999
 21
-213.999
  0
LINE
  8
0
 10
-193
 11
-193
 20
-235
 21
-199.999
  0
LINE
  8
0
 10
-193
 11
-178.999
 20
-199.999
 21
-199.999
  0
LINE
  8
0
 10
-178.999
 11
-179
 20
-199.999
 21
-207
  0
LINE
  8
0
 10
-179
 11
-171.999
 20
-207
 21
-207
  0
LINE
  8
0
 10
-171.999
 11
-172
 20
-207
 21
-199.999
  0
LINE
  8
0
 10
-172
 11
-164.999
 20
-199.999
 21
-199.999
  0
LINE
  8
0
 10
-164.999
 11
-165
 20
-199.999
 21
-207
  0
LINE
  8
0
 10
-165
 11
-157.999
 20
-207
 21
-206.999
  0
LINE
  8
0
 10
-157.999
 11
-157.999
 20
-206.999
 21
-235
  0
LINE
  8
0
 10
-157.999
 11
-165
 20
-235
 21
-235
  0
LINE
  8
0
 10
-165
 11
-171.999
 20
-235
 21
-221
  0
LINE
  8
0
 10
-171.999
 11
-179
 20
-221
 21
-221
  0
LINE
  8
0
 10
-179
 11
-185.999
 20
-221
 21
-207
  0
LINE
  8
0
 10
-185.999
 11
-185.999
 20
-207
 21
-235
  0
LINE
  8
0
 10
-185.999
 11
-193
 20
-235
 21
-235
  0
LINE
  8
0
 10
-193
 11
-193
 20
-103.5
 21
-89.499
  0
LINE
  8
0
 10
-193
 11
-186
 20
-89.499
 21
-89.499
  0
LINE
  8
0
 10
-186
 11
-186
 20
-89.499
 21
-82.499
  0
LINE
  8
0
 10
-186
 11
-179
 20
-82.499
 21
-82.499
  0
LINE
  8
0
 10
-179
 11
-179
 20
-82.499
 21
-75.499
  0
LINE
  8
0
 10
-179
 11
-172
 20
-75.499
 21
-75.499
  0
LINE
  8
0
 10
-172
 11
-172
 20
-75.499
 21
-68.499
  0
LINE
  8
0
 10
-172
 11
-164.999
 20
-68.499
 21
-68.499
  0
LINE
  8
0
 10
-164.999
 11
-164.999
 20
-68.499
 21
-96.499
  0
LINE
  8
0
 10
-164.999
 11
-157.999
 20
-96.499
 21
-96.499
  0
LINE
  8
0
 10
-157.999
 11
-157.999
 20
-96.499
 21
-103.5
  0
LINE
  8
0
 10
-157.999
 11
-164.999
 20
-103.5
 21
-103.5
  0
LINE
  8
0
 10
-164.999
 11
-164.999
 20
-103.5
 21
-117.5
  0
LINE
  8
0
 10
-164.999
 11
-172
 20
-117.5
 21
-117.5
  0
LINE
  8
0
 10
-172
 11
-172
 20
-117.5
 21
-103.5
  0
LINE
  8
0
 10
-172
 11
-193
 20
-103.5
 21
-103.5
  0
LINE
  8
0
 10
-185.999
 11
-178.999
 20
-96.499
 21
-89.5
  0
LINE
  8
0
 10
-178.999
 11
-172
 20
-89.5
 21
-82.5
  0
LINE
  8
0
 10
-172
 11
-172
 20
-82.5
 21
-96.499
  0
LINE
  8
0
 10
-172
 11
-185.999
 20
-96.499
 21
-96.499
  0
LINE
  8
0
 10
-151
 11
-151
 20
-235
 21
-199.999
  0
LINE
  8
0
 10
-151
 11
-136.999
 20
-199.999
 21
-199.999
  0
LINE
  8
0
 10
-136.999
 11
-137
 20
-199.999
 21
-207
  0
LINE
  8
0
 10
-137
 11
-129.999
 20
-207
 21
-207
  0
LINE
  8
0
 10
-129.999
 11
-130
 20
-207
 21
-199.999
  0
LINE
  8
0
 10
-130
 11
-122.999
 20
-199.999
 21
-199.999
  0
LINE
  8
0
 10
-122.999
 11
-123
 20
-199.999
 21
-207
  0
LINE
  8
0
 10
-123
 11
-115.999
 20
-207
 21
-206.999
  0
LINE
  8
0
 10
-115.999
 11
-115.999
 20
-206.999
 21
-235
  0
LINE
  8
0
 10
-115.999
 11
-123
 20
-235
 21
-235
  0
LINE
  8
0
 10
-123
 11
-129.999
 20
-235
 21
-221
  0
LINE
  8
0
 10
-129.999
 11
-137
 20
-221
 21
-221
  0
LINE
  8
0
 10
-137
 11
-143.999
 20
-221
 21
-207
  0
LINE
  8
0
 10
-143.999
 11
-143.999
 20
-207
 21
-235
  0
LINE
  8
0
 10
-143.999
 11
-151
 20
-235
 21
-235
  0
LINE
  8
0
 10
-151
 11
-151
 20
-117.5
 21
-110.499
  0
LINE
  8
0
 10
-151
 11
-143.999
 20
-110.499
 21
-110.5
  0
LINE
  8
0
 10
-143.999
 11
-144
 20
-110.5
 21
-103.499
  0
LINE
  8
0
 10
-144
 11
-136.999
 20
-103.499
 21
-103.5
  0
LINE
  8
0
 10
-136.999
 11
-136.999
 20
-103.5
 21
-96.499
  0
LINE
  8
0
 10
-136.999
 11
-144
 20
-96.499
 21
-96.5
  0
LINE
  8
0
 10
-144
 11
-143.999
 20
-96.5
 21
-89.499
  0
LINE
  8
0
 10
-143.999
 11
-151
 20
-89.499
 21
-89.5
  0
LINE
  8
0
 10
-151
 11
-151
 20
-89.5
 21
-82.499
  0
LINE
  8
0
 10
-151
 11
-143.999
 20
-82.499
 21
-82.499
  0
LINE
  8
0
 10
-143.999
 11
-136.999
 20
-82.499
 21
-89.499
  0
LINE
  8
0
 10
-136.999
 11
-129.999
 20
-89.499
 21
-96.5
  0
LINE
  8
0
 10
-129.999
 11
-130
 20
-96.5
 21
-89.499
  0
LINE
  8
0
 10
-130
 11
-122.999
 20
-89.499
 21
-89.5
  0
LINE
  8
0
 10
-122.999
 11
-123
 20
-89.5
 21
-82.499
  0
LINE
  8
0
 10
-123
 11
-115.999
 20
-82.499
 21
-82.499
  0
LINE
  8
0
 10
-115.999
 11
-115.999
 20
-82.499
 21
-89.5
  0
LINE
  8
0
 10
-115.999
 11
-122.999
 20
-89.5
 21
-96.5
  0
LINE
  8
0
 10
-122.999
 11
-130
 20
-96.5
 21
-103.5
  0
LINE
  8
0
 10
-130
 11
-122.999
 20
-103.5
 21
-103.499
  0
LINE
  8
0
 10
-122.999
 11
-123
 20
-103.499
 21
-110.5
  0
LINE
  8
0
 10
-123
 11
-115.999
 20
-110.5
 21
-110.499
  0
LINE
  8
0
 10
-115.999
 11
-115.999
 20
-110.499
 21
-117.5
  0
LINE
  8
0
 10
-115.999
 11
-123
 20
-117.5
 21
-117.5
  0
LINE
  8
0
 10
-123
 11
-130
 20
-117.5
 21
-110.5
  0
LINE
  8
0
 10
-130
 11
-136.999
 20
-110.5
 21
-110.5
  0
LINE
  8
0
 10
-136.999
 11
-143.999
 20
-110.5
 21
-117.5
  0
LINE
  8
0
 10
-143.999
 11
-151
 20
-117.5
 21
-117.5
  0
LINE
  8
0
 10
0
 11
0
 20
-345.5
 21
-338.499
  0
LINE
  8
0
 10
0
 11
7.001
 20
-338.499
 21
-338.499
  0
LINE
  8
0
 10
7.001
 11
7
 20
-338.499
 21
-345.5
  0
LINE
  8
0
 10
7
 11
28.001
 20
-345.5
 21
-345.5
  0
LINE
  8
0
 10
28.001
 11
28.001
 20
-345.5
 21
-324.499
  0
LINE
  8
0
 10
28.001
 11
0
 20
-324.499
 21
-324.5
  0
LINE
  8
0
 10
0
 11
0
 20
-324.5
 21
-303.499
  0
LINE
  8
0
 10
0
 11
35.001
 20
-303.499
 21
-303.499
  0
LINE
  8
0
 10
35.001
 11
35.001
 20
-303.499
 21
-310.5
  0
LINE
  8
0
 10
35.001
 11
7.001
 20
-310.5
 21
-310.5
  0
LINE
  8
0
 10
7.001
 11
7.001
 20
-310.5
 21
-317.499
  0
LINE
  8
0
 10
7.001
 11
28.001
 20
-317.499
 21
-317.499
  0
LINE
  8
0
 10
28.001
 11
35.001
 20
-317.499
 21
-324.499
  0
LINE
  8
0
 10
35.001
 11
35.001
 20
-324.499
 21
-345.5
  0
LINE
  8
0
 10
35.001
 11
28.001
 20
-345.5
 21
-352.5
  0
LINE
  8
0
 10
28.001
 11
7
 20
-352.5
 21
-352.5
  0
LINE
  8
0
 10
7
 11
0
 20
-352.5
 21
-345.5
  0
LINE
  8
0
 10
0
 11
0
 20
0
 21
932
  0
LINE
  8
0
 10
0
 11
932
 20
932
 21
932
  0
LINE
  8
0
 10
932
 11
932
 20
932
 21
0
  0
LINE
  8
0
 10
932
 11
0
 20
0
 21
0
  0
LINE
  8
0
 10
7
 11
7
 20
-235
 21
-227.999
  0
LINE
  8
0
 10
7
 11
14
 20
-227.999
 21
-227.999
  0
LINE
  8
0
 10
14
 11
14
 20
-227.999
 21
-200
  0
LINE
  8
0
 10
14
 11
7
 20
-200
 21
-200
  0
LINE
  8
0
 10
7
 11
7
 20
-200
 21
-192.999
  0
LINE
  8
0
 10
7
 11
14
 20
-192.999
 21
-192.999
  0
LINE
  8
0
 10
14
 11
14
 20
-192.999
 21
-185.999
  0
LINE
  8
0
 10
14
 11
21.001
 20
-185.999
 21
-185.999
  0
LINE
  8
0
 10
21.001
 11
21.001
 20
-185.999
 21
-227.999
  0
LINE
  8
0
 10
21.001
 11
28.001
 20
-227.999
 21
-227.999
  0
LINE
  8
0
 10
28.001
 11
28.001
 20
-227.999
 21
-235
  0
LINE
  8
0
 10
28.001
 11
7
 20
-235
 21
-235
  0
LINE
  8
0
 10
7
 11
7
 20
-117.5
 21
-110.499
  0
LINE
  8
0
 10
7
 11
14
 20
-110.499
 21
-110.499
  0
LINE
  8
0
 10
14
 11
14
 20
-110.499
 21
-82.5
  0
LINE
  8
0
 10
14
 11
7
 20
-82.5
 21
-82.5
  0
LINE
  8
0
 10
7
 11
7
 20
-82.5
 21
-75.499
  0
LINE
  8
0
 10
7
 11
14
 20
-75.499
 21
-75.499
  0
LINE
  8
0
 10
14
 11
14
 20
-75.499
 21
-68.499
  0
LINE
  8
0
 10
14
 11
21.001
 20
-68.499
 21
-68.499
  0
LINE
  8
0
 10
21.001
 11
21.001
 20
-68.499
 21
-110.499
  0
LINE
  8
0
 10
21.001
 11
28.001
 20
-110.499
 21
-110.499
  0
LINE
  8
0
 10
28.001
 11
28.001
 20
-110.499
 21
-117.5
  0
LINE
  8
0
 10
28.001
 11
7
 20
-117.5
 21
-117.5
  0
LINE
  8
0
 10
37.25
 11
37.25
 20
37.25
 21
72.25
  0
LINE
  8
0
 10
37.25
 11
49.75
 20
72.25
 21
72.25
  0
LINE
  8
0
 10
49.75
 11
49.75
 20
72.25
 21
154.75
  0
LINE
  8
0
 10
49.75
 11
37.25
 20
154.75
 21
154.75
  0
LINE
  8
0
 10
37.25
 11
37.25
 20
154.75
 21
189.75
  0
LINE
  8
0
 10
37.25
 11
49.75
 20
189.75
 21
189.75
  0
LINE
  8
0
 10
49.75
 11
49.75
 20
189.75
 21
272.25
  0
LINE
  8
0
 10
49.75
 11
37.25
 20
272.25
 21
272.25
  0
LINE
  8
0
 10
37.25
 11
37.25
 20
272.25
 21
307.25
  0
LINE
  8
0
 10
37.25
 11
49.75
 20
307.25
 21
307.25
  0
LINE
  8
0
 10
49.75
 11
49.75
 20
307.25
 21
389.75
  0
LINE
  8
0
 10
49.75
 11
37.25
 20
389.75
 21
389.75
  0
LINE
  8
0
 10
37.25
 11
37.25
 20
389.75
 21
424.75
  0
LINE
  8
0
 10
37.25
 11
49.75
 20
424.75
 21
424.75
  0
LINE
  8
0
 10
49.75
 11
49.75
 20
424.75
 21
507.25
  0
LINE
  8
0
 10
49.75
 11
37.25
 20
507.25
 21
507.25
  0
LINE
  8
0
 10
37.25
 11
37.25
 20
507.25
 21
542.25
  0
LINE
  8
0
 10
37.25
 11
49.75
 20
542.25
 21
542.25
  0
LINE
  8
0
 10
49.75
 11
49.75
 20
542.25
 21
624.75
  0
LINE
  8
0
 10
49.75
 11
37.25
 20
624.75
 21
624.75
  0
LINE
  8
0
 10
37.25
 11
37.25
 20
624.75
 21
659.75
  0
LINE
  8
0
 10
37.25
 11
49.75
 20
659.75
 21
659.75
  0
LINE
  8
0
 10
49.75
 11
49.75
 20
659.75
 21
742.25
  0
LINE
  8
0
 10
49.75
 11
37.25
 20
742.25
 21
742.25
  0
LINE
  8
0
 10
37.25
 11
37.25
 20
742.25
 21
777.25
  0
LINE
  8
0
 10
37.25
 11
49.75
 20
777.25
 21
777.25
  0
LINE
  8
0
 10
49.75
 11
49.75
 20
777.25
 21
859.75
  0
LINE
  8
0
 10
49.75
 11
37.25
 20
859.75
 21
859.75
  0
LINE
  8
0
 10
37.25
 11
37.25
 20
859.75
 21
894.75
  0
LINE
  8
0
 10
37.25
 11
72.25
 20
894.75
 21
894.75
  0
LINE
  8
0
 10
72.25
 11
72.25
 20
894.75
 21
859.75
  0
LINE
  8
0
 10
72.25
 11
59.75
 20
859.75
 21
859.75
  0
LINE
  8
0
 10
59.75
 11
59.75
 20
859.75
 21
777.25
  0
LINE
  8
0
 10
59.75
 11
72.25
 20
777.25
 21
777.25
  0
LINE
  8
0
 10
72.25
 11
72.25
 20
777.25
 21
742.25
  0
LINE
  8
0
 10
72.25
 11
59.75
 20
742.25
 21
742.25
  0
LINE
  8
0
 10
59.75
 11
59.75
 20
742.25
 21
659.75
  0
LINE
  8
0
 10
59.75
 11
72.25
 20
659.75
 21
659.75
  0
LINE
  8
0
 10
72.25
 11
72.25
 20
659.75
 21
624.75
  0
LINE
  8
0
 10
72.25
 11
59.75
 20
624.75
 21
624.75
  0
LINE
  8
0
 10
59.75
 11
59.75
 20
624.75
 21
542.25
  0
LINE
  8
0
 10
59.75
 11
72.25
 20
542.25
 21
542.25
  0
LINE
  8
0
 10
72.25
 11
72.25
 20
542.25
 21
507.25
  0
LINE
  8
0
 10
72.25
 11
59.75
 20
507.25
 21
507.25
  0
LINE
  8
0
 10
59.75
 11
59.75
 20
507.25
 21
424.75
  0
LINE
  8
0
 10
59.75
 11
72.25
 20
424.75
 21
424.75
  0
LINE
  8
0
 10
72.25
 11
72.25
 20
424.75
 21
389.75
  0
LINE
  8
0
 10
72.25
 11
59.75
 20
389.75
 21
389.75
  0
LINE
  8
0
 10
59.75
 11
59.75
 20
389.75
 21
307.25
  0
LINE
  8
0
 10
59.75
 11
72.25
 20
307.25
 21
307.25
  0
LINE
  8
0
 10
72.25
 11
72.25
 20
307.25
 21
272.25
  0
LINE
  8
0
 10
72.25
 11
59.75
 20
272.25
 21
272.25
  0
LINE
  8
0
 10
59.75
 11
59.75
 20
272.25
 21
189.75
  0
LINE
  8
0
 10
59.75
 11
72.25
 20
189.75
 21
189.75
  0
LINE
  8
0
 10
72.25
 11
72.25
 20
189.75
 21
154.75
  0
LINE
  8
0
 10
72.25
 11
59.75
 20
154.75
 21
154.75
  0
LINE
  8
0
 10
59.75
 11
59.75
 20
154.75
 21
72.25
  0
LINE
  8
0
 10
59.75
 11
72.25
 20
72.25
 21
72.25
  0
LINE
  8
0
 10
72.25
 11
72.25
 20
72.25
 21
38.25
  0
LINE
  8
0
 10
72.25
 11
154.75
 20
38.25
 21
38.25
  0
LINE
  8
0
 10
154.75
 11
154.75
 20
38.25
 21
72.25
  0
LINE
  8
0
 10
154.75
 11
167.25
 20
72.25
 21
72.25
  0
LINE
  8
0
 10
167.25
 11
167.25
 20
72.25
 21
154.75
  0
LINE
  8
0
 10
167.25
 11
154.75
 20
154.75
 21
154.75
  0
LINE
  8
0
 10
154.75
 11
154.75
 20
154.75
 21
189.75
  0
LINE
  8
0
 10
154.75
 11
167.25
 20
189.75
 21
189.75
  0
LINE
  8
0
 10
167.25
 11
167.25
 20
189.75
 21
272.25
  0
LINE
  8
0
 10
167.25
 11
154.75
 20
272.25
 21
272.25
  0
LINE
  8
0
 10
154.75
 11
154.75
 20
272.25
 21
307.25
  0
LINE
  8
0
 10
154.75
 11
167.25
 20
307.25
 21
307.25
  0
LINE
  8
0
 10
167.25
 11
167.25
 20
307.25
 21
389.75
  0
LINE
  8
0
 10
167.25
 11
154.75
 20
389.75
 21
389.75
  0
LINE
  8
0
 10
154.75
 11
154.75
 20
389.75
 21
424.75
  0
LINE
  8
0
 10
154.75
 11
167.25
 20
424.75
 21
424.75
  0
LINE
  8
0
 10
167.25
 11
167.25
 20
424.75
 21
507.25
  0
LINE
  8
0
 10
167.25
 11
154.75
 20
507.25
 21
507.25
  0
LINE
  8
0
 10
154.75
 11
154.75
 20
507.25
 21
542.25
  0
LINE
  8
0
 10
154.75
 11
167.25
 20
542.25
 21
542.25
  0
LINE
  8
0
 10
167.25
 11
167.25
 20
542.25
 21
624.75
  0
LINE
  8
0
 10
167.25
 11
154.75
 20
624.75
 21
624.75
  0
LINE
  8
0
 10
154.75
 11
154.75
 20
624.75
 21
659.75
  0
LINE
  8
0
 10
154.75
 11
167.25
 20
659.75
 21
659.75
  0
LINE
  8
0
 10
167.25
 11
167.25
 20
659.75
 21
742.25
  0
LINE
  8
0
 10
167.25
 11
154.75
 20
742.25
 21
742.25
  0
LINE
  8
0
 10
154.75
 11
154.75
 20
742.25
 21
777.25
  0
LINE
  8
0
 10
154.75
 11
167.25
 20
777.25
 21
777.25
  0
LINE
  8
0
 10
167.25
 11
167.25
 20
777.25
 21
859.75
  0
LINE
  8
0
 10
167.25
 11
154.75
 20
859.75
 21
859.75
  0
LINE
  8
0
 10
154.75
 11
154.75
 20
859.75
 21
894.75
  0
LINE
  8
0
 10
154.75
 11
163.5
 20
894.75
 21
894.75
  0
LINE
  8
0
 10
163.5
 11
163.5
 20
894.75
 21
903.75
  0
LINE
  8
0
 10
163.5
 11
298.5
 20
903.75
 21
903.75
  0
LINE
  8
0
 10
298.5
 11
298.5
 20
903.75
 21
894.75
  0
LINE
  8
0
 10
298.5
 11
307.25
 20
894.75
 21
894.75
  0
LINE
  8
0
 10
307.25
 11
307.25
 20
894.75
 21
859.75
  0
LINE
  8
0
 10
307.25
 11
294.75
 20
859.75
 21
859.75
  0
LINE
  8
0
 10
294.75
 11
294.75
 20
859.75
 21
777.25
  0
LINE
  8
0
 10
294.75
 11
307.25
 20
777.25
 21
777.25
  0
LINE
  8
0
 10
307.25
 11
307.25
 20
777.25
 21
742.25
  0
LINE
  8
0
 10
307.25
 11
294.75
 20
742.25
 21
742.25
  0
LINE
  8
0
 10
294.75
 11
294.75
 20
742.25
 21
659.75
  0
LINE
  8
0
 10
294.75
 11
307.25
 20
659.75
 21
659.75
  0
LINE
  8
0
 10
307.25
 11
307.25
 20
659.75
 21
624.75
  0
LINE
  8
0
 10
307.25
 11
294.75
 20
624.75
 21
624.75
  0
LINE
  8
0
 10
294.75
 11
294.75
 20
624.75
 21
542.25
  0
LINE
  8
0
 10
294.75
 11
307.25
 20
542.25
 21
542.25
  0
LINE
  8
0
 10
307.25
 11
307.25
 20
542.25
 21
507.25
  0
LINE
  8
0
 10
307.25
 11
294.75
 20
507.25
 21
507.25
  0
LINE
  8
0
 10
294.75
 11
294.75
 20
507.25
 21
424.75
  0
LINE
  8
0
 10
294.75
 11
307.25
 20
424.75
 21
424.75
  0
LINE
  8
0
 10
307.25
 11
307.25
 20
424.75
 21
389.75
  0
LINE
  8
0
 10
307.25
 11
294.75
 20
389.75
 21
389.75
  0
LINE
  8
0
 10
294.75
 11
294.75
 20
389.75
 21
307.25
  0
LINE
  8
0
 10
294.75
 11
307.25
 20
307.25
 21
307.25
  0
LINE
  8
0
 10
307.25
 11
307.25
 20
307.25
 21
272.25
  0
LINE
  8
0
 10
307.25
 11
294.75
 20
272.25
 21
272.25
  0
LINE
  8
0
 10
294.75
 11
294.75
 20
272.25
 21
189.75
  0
LINE
  8
0
 10
294.75
 11
307.25
 20
189.75
 21
189.75
  0
LINE
  8
0
 10
307.25
 11
307.25
 20
189.75
 21
154.75
  0
LINE
  8
0
 10
307.25
 11
294.75
 20
154.75
 21
154.75
  0
LINE
  8
0
 10
294.75
 11
294.75
 20
154.75
 21
72.25
  0
LINE
  8
0
 10
294.75
 11
307.25
 20
72.25
 21
72.25
  0
LINE
  8
0
 10
307.25
 11
307.25
 20
72.25
 21
38.25
  0
LINE
  8
0
 10
307.25
 11
389.75
 20
38.25
 21
38.25
  0
LINE
  8
0
 10
389.75
 11
389.75
 20
38.25
 21
72.25
  0
LINE
  8
0
 10
389.75
 11
402.25
 20
72.25
 21
72.25
  0
LINE
  8
0
 10
402.25
 11
402.25
 20
72.25
 21
154.75
  0
LINE
  8
0
 10
402.25
 11
389.75
 20
154.75
 21
154.75
  0
LINE
  8
0
 10
389.75
 11
389.75
 20
154.75
 21
189.75
  0
LINE
  8
0
 10
389.75
 11
402.25
 20
189.75
 21
189.75
  0
LINE
  8
0
 10
402.25
 11
402.25
 20
189.75
 21
272.25
  0
LINE
  8
0
 10
402.25
 11
389.75
 20
272.25
 21
272.25
  0
LINE
  8
0
 10
389.75
 11
389.75
 20
272.25
 21
307.25
  0
LINE
  8
0
 10
389.75
 11
402.25
 20
307.25
 21
307.25
  0
LINE
  8
0
 10
402.25
 11
402.25
 20
307.25
 21
389.75
  0
LINE
  8
0
 10
402.25
 11
389.75
 20
389.75
 21
389.75
  0
LINE
  8
0
 10
389.75
 11
389.75
 20
389.75
 21
424.75
  0
LINE
  8
0
 10
389.75
 11
402.25
 20
424.75
 21
424.75
  0
LINE
  8
0
 10
402.25
 11
402.25
 20
424.75
 21
507.25
  0
LINE
  8
0
 10
402.25
 11
389.75
 20
507.25
 21
507.25
  0
LINE
  8
0
 10
389.75
 11
389.75
 20
507.25
 21
542.25
  0
LINE
  8
0
 10
389.75
 11
402.25
 20
542.25
 21
542.25
  0
LINE
  8
0
 10
402.25
 11
402.25
 20
542.25
 21
624.75
  0
LINE
  8
0
 10
402.25
 11
389.75
 20
624.75
 21
624.75
  0
LINE
  8
0
 10
389.75
 11
389.75
 20
624.75
 21
659.75
  0
LINE
  8
0
 10
389.75
 11
402.25
 20
659.75
 21
659.75
  0
LINE
  8
0
 10
402.25
 11
402.25
 20
659.75
 21
742.25
  0
LINE
  8
0
 10
402.25
 11
389.75
 20
742.25
 21
742.25
  0
LINE
  8
0
 10
389.75
 11
389.75
 20
742.25
 21
777.25
  0
LINE
  8
0
 10
389.75
 11
402.25
 20
777.25
 21
777.25
  0
LINE
  8
0
 10
402.25
 11
402.25
 20
777.25
 21
859.75
  0
LINE
  8
0
 10
402.25
 11
389.75
 20
859.75
 21
859.75
  0
LINE
  8
0
 10
389.75
 11
389.75
 20
859.75
 21
894.75
  0
LINE
  8
0
 10
389.75
 11
398.5
 20
894.75
 21
894.75
  0
LINE
  8
0
 10
398.5
 11
398.5
 20
894.75
 21
903.75
  0
LINE
  8
0
 10
398.5
 11
533.5
 20
903.75
 21
903.75
  0
LINE
  8
0
 10
533.5
 11
533.5
 20
903.75
 21
894.75
  0
LINE
  8
0
 10
533.5
 11
542.25
 20
894.75
 21
894.75
  0
LINE
  8
0
 10
542.25
 11
542.25
 20
894.75
 21
859.75
  0
LINE
  8
0
 10
542.25
 11
529.75
 20
859.75
 21
859.75
  0
LINE
  8
0
 10
529.75
 11
529.75
 20
859.75
 21
777.25
  0
LINE
  8
0
 10
529.75
 11
542.25
 20
777.25
 21
777.25
  0
LINE
  8
0
 10
542.25
 11
542.25
 20
777.25
 21
742.25
  0
LINE
  8
0
 10
542.25
 11
529.75
 20
742.25
 21
742.25
  0
LINE
  8
0
 10
529.75
 11
529.75
 20
742.25
 21
659.75
  0
LINE
  8
0
 10
529.75
 11
542.25
 20
659.75
 21
659.75
  0
LINE
  8
0
 10
542.25
 11
542.25
 20
659.75
 21
624.75
  0
LINE
  8
0
 10
542.25
 11
529.75
 20
624.75
 21
624.75
  0
LINE
  8
0
 10
529.75
 11
529.75
 20
624.75
 21
542.25
  0
LINE
  8
0
 10
529.75
 11
542.25
 20
542.25
 21
542.25
  0
LINE
  8
0
 10
542.25
 11
542.25
 20
542.25
 21
507.25
  0
LINE
  8
0
 10
542.25
 11
529.75
 20
507.25
 21
507.25
  0
LINE
  8
0
 10
529.75
 11
529.75
 20
507.25
 21
424.75
  0
LINE
  8
0
 10
529.75
 11
542.25
 20
424.75
 21
424.75
  0
LINE
  8
0
 10
542.25
 11
542.25
 20
424.75
 21
389.75
  0
LINE
  8
0
 10
542.25
 11
529.75
 20
389.75
 21
389.75
  0
LINE
  8
0
 10
529.75
 11
529.75
 20
389.75
 21
307.25
  0
LINE
  8
0
 10
529.75
 11
542.25
 20
307.25
 21
307.25
  0
LINE
  8
0
 10
542.25
 11
542.25
 20
307.25
 21
272.25
  0
LINE
  8
0
 10
542.25
 11
529.75
 20
272.25
 21
272.25
  0
LINE
  8
0
 10
529.75
 11
529.75
 20
272.25
 21
189.75
  0
LINE
  8
0
 10
529.75
 11
542.25
 20
189.75
 21
189.75
  0
LINE
  8
0
 10
542.25
 11
542.25
 20
189.75
 21
154.75
  0
LINE
  8
0
 10
542.25
 11
529.75
 20
154.75
 21
154.75
  0
LINE
  8
0
 10
529.75
 11
529.75
 20
154.75
 21
72.25
  0
LINE
  8
0
 10
529.75
 11
542.25
 20
72.25
 21
72.25
  0
LINE
  8
0
 10
542.25
 11
542.25
 20
72.25
 21
38.25
  0
LINE
  8
0
 10
542.25
 11
624.75
 20
38.25
 21
38.25
  0
LINE
  8
0
 10
624.75
 11
624.75
 20
38.25
 21
72.25
  0
LINE
  8
0
 10
624.75
 11
637.25
 20
72.25
 21
72.25
  0
LINE
  8
0
 10
637.25
 11
637.25
 20
72.25
 21
154.75
  0
LINE
  8
0
 10
637.25
 11
624.75
 20
154.75
 21
154.75
  0
LINE
  8
0
 10
624.75
 11
624.75
 20
154.75
 21
189.75
  0
LINE
  8
0
 10
624.75
 11
637.25
 20
189.75
 21
189.75
  0
LINE
  8
0
 10
637.25
 11
637.25
 20
189.75
 21
272.25
  0
LINE
  8
0
 10
637.25
 11
624.75
 20
272.25
 21
272.25
  0
LINE
  8
0
 10
624.75
 11
624.75
 20
272.25
 21
307.25
  0
LINE
  8
0
 10
624.75
 11
637.25
 20
307.25
 21
307.25
  0
LINE
  8
0
 10
637.25
 11
637.25
 20
307.25
 21
389.75
  0
LINE
  8
0
 10
637.25
 11
624.75
 20
389.75
 21
389.75
  0
LINE
  8
0
 10
624.75
 11
624.75
 20
389.75
 21
424.75
  0
LINE
  8
0
 10
624.75
 11
637.25
 20
424.75
 21
424.75
  0
LINE
  8
0
 10
637.25
 11
637.25
 20
424.75
 21
507.25
  0
LINE
  8
0
 10
637.25
 11
624.75
 20
507.25
 21
507.25
  0
LINE
  8
0
 10
624.75
 11
624.75
 20
507.25
 21
542.25
  0
LINE
  8
0
 10
624.75
 11
637.25
 20
542.25
 21
542.25
  0
LINE
  8
0
 10
637.25
 11
637.25
 20
542.25
 21
624.75
  0
LINE
  8
0
 10
637.25
 11
624.75
 20
624.75
 21
624.75
  0
LINE
  8
0
 10
624.75
 11
624.75
 20
624.75
 21
659.75
  0
LINE
  8
0
 10
624.75
 11
637.25
 20
659.75
 21
659.75
  0
LINE
  8
0
 10
637.25
 11
637.25
 20
659.75
 21
742.25
  0
LINE
  8
0
 10
637.25
 11
624.75
 20
742.25
 21
742.25
  0
LINE
  8
0
 10
624.75
 11
624.75
 20
742.25
 21
777.25
  0
LINE
  8
0
 10
624.75
 11
637.25
 20
777.25
 21
777.25
  0
LINE
  8
0
 10
637.25
 11
637.25
 20
777.25
 21
859.75
  0
LINE
  8
0
 10
637.25
 11
624.75
 20
859.75
 21
859.75
  0
LINE
  8
0
 10
624.75
 11
624.75
 20
859.75
 21
894.75
  0
LINE
  8
0
 10
624.75
 11
633.5
 20
894.75
 21
894.75
  0
LINE
  8
0
 10
633.5
 11
633.5
 20
894.75
 21
903.75
  0
LINE
  8
0
 10
633.5
 11
768.5
 20
903.75
 21
903.75
  0
LINE
  8
0
 10
768.5
 11
768.5
 20
903.75
 21
894.75
  0
LINE
  8
0
 10
768.5
 11
777.25
 20
894.75
 21
894.75
  0
LINE
  8
0
 10
777.25
 11
777.25
 20
894.75
 21
859.75
  0
LINE
  8
0
 10
777.25
 11
764.75
 20
859.75
 21
859.75
  0
LINE
  8
0
 10
764.75
 11
764.75
 20
859.75
 21
777.25
  0
LINE
  8
0
 10
764.75
 11
777.25
 20
777.25
 21
777.25
  0
LINE
  8
0
 10
777.25
 11
777.25
 20
777.25
 21
742.25
  0
LINE
  8
0
 10
777.25
 11
764.75
 20
742.25
 21
742.25
  0
LINE
  8
0
 10
764.75
 11
764.75
 20
742.25
 21
659.75
  0
LINE
  8
0
 10
764.75
 11
777.25
 20
659.75
 21
659.75
  0
LINE
  8
0
 10
777.25
 11
777.25
 20
659.75
 21
624.75
  0
LINE
  8
0
 10
777.25
 11
764.75
 20
624.75
 21
624.75
  0
LINE
  8
0
 10
764.75
 11
764.75
 20
624.75
 21
542.25
  0
LINE
  8
0
 10
764.75
 11
777.25
 20
542.25
 21
542.25
  0
LINE
  8
0
 10
777.25
 11
777.25
 20
542.25
 21
507.25
  0
LINE
  8
0
 10
777.25
 11
764.75
 20
507.25
 21
507.25
  0
LINE
  8
0
 10
764.75
 11
764.75
 20
507.25
 21
424.75
  0
LINE
  8
0
 10
764.75
 11
777.25
 20
424.75
 21
424.75
  0
LINE
  8
0
 10
777.25
 11
777.25
 20
424.75
 21
389.75
  0
LINE
  8
0
 10
777.25
 11
764.75
 20
389.75
 21
389.75
  0
LINE
  8
0
 10
764.75
 11
764.75
 20
389.75
 21
307.25
  0
LINE
  8
0
 10
764.75
 11
777.25
 20
307.25
 21
307.25
  0
LINE
  8
0
 10
777.25
 11
777.25
 20
307.25
 21
272.25
  0
LINE
  8
0
 10
777.25
 11
764.75
 20
272.25
 21
272.25
  0
LINE
  8
0
 10
764.75
 11
764.75
 20
272.25
 21
189.75
  0
LINE
  8
0
 10
764.75
 11
777.25
 20
189.75
 21
189.75
  0
LINE
  8
0
 10
777.25
 11
777.25
 20
189.75
 21
154.75
  0
LINE
  8
0
 10
777.25
 11
764.75
 20
154.75
 21
154.75
  0
LINE
  8
0
 10
764.75
 11
764.75
 20
154.75
 21
72.25
  0
LINE
  8
0
 10
764.75
 11
777.25
 20
72.25
 21
72.25
  0
LINE
  8
0
 10
777.25
 11
777.25
 20
72.25
 21
38.25
  0
LINE
  8
0
 10
777.25
 11
859.75
 20
38.25
 21
38.25
  0
LINE
  8
0
 10
859.75
 11
859.75
 20
38.25
 21
72.25
  0
LINE
  8
0
 10
859.75
 11
872.25
 20
72.25
 21
72.25
  0
LINE
  8
0
 10
872.25
 11
872.25
 20
72.25
 21
154.75
  0
LINE
  8
0
 10
872.25
 11
859.75
 20
154.75
 21
154.75
  0
LINE
  8
0
 10
859.75
 11
859.75
 20
154.75
 21
189.75
  0
LINE
  8
0
 10
859.75
 11
872.25
 20
189.75
 21
189.75
  0
LINE
  8
0
 10
872.25
 11
872.25
 20
189.75
 21
272.25
  0
LINE
  8
0
 10
872.25
 11
859.75
 20
272.25
 21
272.25
  0
LINE
  8
0
 10
859.75
 11
859.75
 20
272.25
 21
307.25
  0
LINE
  8
0
 10
859.75
 11
872.25
 20
307.25
 21
307.25
  0
LINE
  8
0
 10
872.25
 11
872.25
 20
307.25
 21
389.75
  0
LINE
  8
0
 10
872.25
 11
859.75
 20
389.75
 21
389.75
  0
LINE
  8
0
 10
859.75
 11
859.75
 20
389.75
 21
424.75
  0
LINE
  8
0
 10
859.75
 11
872.25
 20
424.75
 21
424.75
  0
LINE
  8
0
 10
872.25
 11
872.25
 20
424.75
 21
507.25
  0
LINE
  8
0
 10
872.25
 11
859.75
 20
507.25
 21
507.25
  0
LINE
  8
0
 10
859.75
 11
859.75
 20
507.25
 21
542.25
  0
LINE
  8
0
 10
859.75
 11
872.25
 20
542.25
 21
542.25
  0
LINE
  8
0
 10
872.25
 11
872.25
 20
542.25
 21
624.75
  0
LINE
  8
0
 10
872.25
 11
859.75
 20
624.75
 21
624.75
  0
LINE
  8
0
 10
859.75
 11
859.75
 20
624.75
 21
659.75
  0
LINE
  8
0
 10
859.75
 11
872.25
 20
659.75
 21
659.75
  0
LINE
  8
0
 10
872.25
 11
872.25
 20
659.75
 21
742.25
  0
LINE
  8
0
 10
872.25
 11
859.75
 20
742.25
 21
742.25
  0
LINE
  8
0
 10
859.75
 11
859.75
 20
742.25
 21
777.25
  0
LINE
  8
0
 10
859.75
 11
872.25
 20
777.25
 21
777.25
  0
LINE
  8
0
 10
872.25
 11
872.25
 20
777.25
 21
859.75
  0
LINE
  8
0
 10
872.25
 11
859.75
 20
859.75
 21
859.75
  0
LINE
  8
0
 10
859.75
 11
859.75
 20
859.75
 21
894.75
  0
LINE
  8
0
 10
859.75
 11
894.75
 20
894.75
 21
894.75
  0
LINE
  8
0
 10
894.75
 11
894.75
 20
894.75
 21
859.75
  0
LINE
  8
0
 10
894.75
 11
882.25
 20
859.75
 21
859.75
  0
LINE
  8
0
 10
882.25
 11
882.25
 20
859.75
 21
777.25
  0
LINE
  8
0
 10
882.25
 11
894.75
 20
777.25
 21
777.25
  0
LINE
  8
0
 10
894.75
 11
894.75
 20
777.25
 21
742.25
  0
LINE
  8
0
 10
894.75
 11
882.25
 20
742.25
 21
742.25
  0
LINE
  8
0
 10
882.25
 11
882.25
 20
742.25
 21
659.75
  0
LINE
  8
0
 10
882.25
 11
894.75
 20
659.75
 21
659.75
  0
LINE
  8
0
 10
894.75
 11
894.75
 20
659.75
 21
624.75
  0
LINE
  8
0
 10
894.75
 11
882.25
 20
624.75
 21
624.75
  0
LINE
  8
0
 10
882.25
 11
882.25
 20
624.75
 21
542.25
  0
LINE
  8
0
 10
882.25
 11
894.75
 20
542.25
 21
542.25
  0
LINE
  8
0
 10
894.75
 11
894.75
 20
542.25
 21
507.25
  0
LINE
  8
0
 10
894.75
 11
882.25
 20
507.25
 21
507.25
  0
LINE
  8
0
 10
882.25
 11
882.25
 20
507.25
 21
424.75
  0
LINE
  8
0
 10
882.25
 11
894.75
 20
424.75
 21
424.75
  0
LINE
  8
0
 10
894.75
 11
894.75
 20
424.75
 21
389.75
  0
LINE
  8
0
 10
894.75
 11
882.25
 20
389.75
 21
389.75
  0
LINE
  8
0
 10
882.25
 11
882.25
 20
389.75
 21
307.25
  0
LINE
  8
0
 10
882.25
 11
894.75
 20
307.25
 21
307.25
  0
LINE
  8
0
 10
894.75
 11
894.75
 20
307.25
 21
272.25
  0
LINE
  8
0
 10
894.75
 11
882.25
 20
272.25
 21
272.25
  0
LINE
  8
0
 10
882.25
 11
882.25
 20
272.25
 21
189.75
  0
LINE
  8
0
 10
882.25
 11
894.75
 20
189.75
 21
189.75
  0
LINE
  8
0
 10
894.75
 11
894.75
 20
189.75
 21
154.75
  0
LINE
  8
0
 10
894.75
 11
882.25
 20
154.75
 21
154.75
  0
LINE
  8
0
 10
882.25
 11
882.25
 20
154.75
 21
72.25
  0
LINE
  8
0
 10
882.25
 11
894.75
 20
72.25
 21
72.25
  0
LINE
  8
0
 10
894.75
 11
894.75
 20
72.25
 21
37.25
  0
LINE
  8
0
 10
894.75
 11
886
 20
37.25
 21
37.25
  0
LINE
  8
0
 10
886
 11
886
 20
37.25
 21
28.25
  0
LINE
  8
0
 10
886
 11
751
 20
28.25
 21
28.25
  0
LINE
  8
0
 10
751
 11
751
 20
28.25
 21
37.25
  0
LINE
  8
0
 10
751
 11
742.25
 20
37.25
 21
37.25
  0
LINE
  8
0
 10
742.25
 11
742.25
 20
37.25
 21
72.25
  0
LINE
  8
0
 10
742.25
 11
754.75
 20
72.25
 21
72.25
  0
LINE
  8
0
 10
754.75
 11
754.75
 20
72.25
 21
154.75
  0
LINE
  8
0
 10
754.75
 11
742.25
 20
154.75
 21
154.75
  0
LINE
  8
0
 10
742.25
 11
742.25
 20
154.75
 21
189.75
  0
LINE
  8
0
 10
742.25
 11
754.75
 20
189.75
 21
189.75
  0
LINE
  8
0
 10
754.75
 11
754.75
 20
189.75
 21
272.25
  0
LINE
  8
0
 10
754.75
 11
742.25
 20
272.25
 21
272.25
  0
LINE
  8
0
 10
742.25
 11
742.25
 20
272.25
 21
307.25
  0
LINE
  8
0
 10
742.25
 11
754.75
 20
307.25
 21
307.25
  0
LINE
  8
0
 10
754.75
 11
754.75
 20
307.25
 21
389.75
  0
LINE
  8
0
 10
754.75
 11
742.25
 20
389.75
 21
389.75
  0
LINE
  8
0
 10
742.25
 11
742.25
 20
389.75
 21
424.75
  0
LINE
  8
0
 10
742.25
 11
754.75
 20
424.75
 21
424.75
  0
LINE
  8
0
 10
754.75
 11
754.75
 20
424.75
 21
507.25
  0
LINE
  8
0
 10
754.75
 11
742.25
 20
507.25
 21
507.25
  0
LINE
  8
0
 10
742.25
 11
742.25
 20
507.25
 21
542.25
  0
LINE
  8
0
 10
742.25
 11
754.75
 20
542.25
 21
542.25
  0
LINE
  8
0
 10
754.75
 11
754.75
 20
542.25
 21
624.75
  0
LINE
  8
0
 10
754.75
 11
742.25
 20
624.75
 21
624.75
  0
LINE
  8
0
 10
742.25
 11
742.25
 20
624.75
 21
659.75
  0
LINE
  8
0
 10
742.25
 11
754.75
 20
659.75
 21
659.75
  0
LINE
  8
0
 10
754.75
 11
754.75
 20
659.75
 21
742.25
  0
LINE
  8
0
 10
754.75
 11
742.25
 20
742.25
 21
742.25
  0
LINE
  8
0
 10
742.25
 11
742.25
 20
742.25
 21
777.25
  0
LINE
  8
0
 10
742.25
 11
754.75
 20
777.25
 21
777.25
  0
LINE
  8
0
 10
754.75
 11
754.75
 20
777.25
 21
859.75
  0
LINE
  8
0
 10
754.75
 11
742.25
 20
859.75
 21
859.75
  0
LINE
  8
0
 10
742.25
 11
742.25
 20
859.75
 21
893.75
  0
LINE
  8
0
 10
742.25
 11
659.75
 20
893.75
 21
893.75
  0
LINE
  8
0
 10
659.75
 11
659.75
 20
893.75
 21
859.75
  0
LINE
  8
0
 10
659.75
 11
647.25
 20
859.75
 21
859.75
  0
LINE
  8
0
 10
647.25
 11
647.25
 20
859.75
 21
777.25
  0
LINE
  8
0
 10
647.25
 11
659.75
 20
777.25
 21
777.25
  0
LINE
  8
0
 10
659.75
 11
659.75
 20
777.25
 21
742.25
  0
LINE
  8
0
 10
659.75
 11
647.25
 20
742.25
 21
742.25
  0
LINE
  8
0
 10
647.25
 11
647.25
 20
742.25
 21
659.75
  0
LINE
  8
0
 10
647.25
 11
659.75
 20
659.75
 21
659.75
  0
LINE
  8
0
 10
659.75
 11
659.75
 20
659.75
 21
624.75
  0
LINE
  8
0
 10
659.75
 11
647.25
 20
624.75
 21
624.75
  0
LINE
  8
0
 10
647.25
 11
647.25
 20
624.75
 21
542.25
  0
LINE
  8
0
 10
647.25
 11
659.75
 20
542.25
 21
542.25
  0
LINE
  8
0
 10
659.75
 11
659.75
 20
542.25
 21
507.25
  0
LINE
  8
0
 10
659.75
 11
647.25
 20
507.25
 21
507.25
  0
LINE
  8
0
 10
647.25
 11
647.25
 20
507.25
 21
424.75
  0
LINE
  8
0
 10
647.25
 11
659.75
 20
424.75
 21
424.75
  0
LINE
  8
0
 10
659.75
 11
659.75
 20
424.75
 21
389.75
  0
LINE
  8
0
 10
659.75
 11
647.25
 20
389.75
 21
389.75
  0
LINE
  8
0
 10
647.25
 11
647.25
 20
389.75
 21
307.25
  0
LINE
  8
0
 10
647.25
 11
659.75
 20
307.25
 21
307.25
  0
LINE
  8
0
 10
659.75
 11
659.75
 20
307.25
 21
272.25
  0
LINE
  8
0
 10
659.75
 11
647.25
 20
272.25
 21
272.25
  0
LINE
  8
0
 10
647.25
 11
647.25
 20
272.25
 21
189.75
  0
LINE
  8
0
 10
647.25
 11
659.75
 20
189.75
 21
189.75
  0
LINE
  8
0
 10
659.75
 11
659.75
 20
189.75
 21
154.75
  0
LINE
  8
0
 10
659.75
 11
647.25
 20
154.75
 21
154.75
  0
LINE
  8
0
 10
647.25
 11
647.25
 20
154.75
 21
72.25
  0
LINE
  8
0
 10
647.25
 11
659.75
 20
72.25
 21
72.25
  0
LINE
  8
0
 10
659.75
 11
659.75
 20
72.25
 21
37.25
  0
LINE
  8
0
 10
659.75
 11
651
 20
37.25
 21
37.25
  0
LINE
  8
0
 10
651
 11
651
 20
37.25
 21
28.25
  0
LINE
  8
0
 10
651
 11
516
 20
28.25
 21
28.25
  0
LINE
  8
0
 10
516
 11
516
 20
28.25
 21
37.25
  0
LINE
  8
0
 10
516
 11
507.25
 20
37.25
 21
37.25
  0
LINE
  8
0
 10
507.25
 11
507.25
 20
37.25
 21
72.25
  0
LINE
  8
0
 10
507.25
 11
519.75
 20
72.25
 21
72.25
  0
LINE
  8
0
 10
519.75
 11
519.75
 20
72.25
 21
154.75
  0
LINE
  8
0
 10
519.75
 11
507.25
 20
154.75
 21
154.75
  0
LINE
  8
0
 10
507.25
 11
507.25
 20
154.75
 21
189.75
  0
LINE
  8
0
 10
507.25
 11
519.75
 20
189.75
 21
189.75
  0
LINE
  8
0
 10
519.75
 11
519.75
 20
189.75
 21
272.25
  0
LINE
  8
0
 10
519.75
 11
507.25
 20
272.25
 21
272.25
  0
LINE
  8
0
 10
507.25
 11
507.25
 20
272.25
 21
307.25
  0
LINE
  8
0
 10
507.25
 11
519.75
 20
307.25
 21
307.25
  0
LINE
  8
0
 10
519.75
 11
519.75
 20
307.25
 21
389.75
  0
LINE
  8
0
 10
519.75
 11
507.25
 20
389.75
 21
389.75
  0
LINE
  8
0
 10
507.25
 11
507.25
 20
389.75
 21
424.75
  0
LINE
  8
0
 10
507.25
 11
519.75
 20
424.75
 21
424.75
  0
LINE
  8
0
 10
519.75
 11
519.75
 20
424.75
 21
507.25
  0
LINE
  8
0
 10
519.75
 11
507.25
 20
507.25
 21
507.25
  0
LINE
  8
0
 10
507.25
 11
507.25
 20
507.25
 21
542.25
  0
LINE
  8
0
 10
507.25
 11
519.75
 20
542.25
 21
542.25
  0
LINE
  8
0
 10
519.75
 11
519.75
 20
542.25
 21
624.75
  0
LINE
  8
0
 10
519.75
 11
507.25
 20
624.75
 21
624.75
  0
LINE
  8
0
 10
507.25
 11
507.25
 20
624.75
 21
659.75
  0
LINE
  8
0
 10
507.25
 11
519.75
 20
659.75
 21
659.75
  0
LINE
  8
0
 10
519.75
 11
519.75
 20
659.75
 21
742.25
  0
LINE
  8
0
 10
519.75
 11
507.25
 20
742.25
 21
742.25
  0
LINE
  8
0
 10
507.25
 11
507.25
 20
742.25
 21
777.25
  0
LINE
  8
0
 10
507.25
 11
519.75
 20
777.25
 21
777.25
  0
LINE
  8
0
 10
519.75
 11
519.75
 20
777.25
 21
859.75
  0
LINE
  8
0
 10
519.75
 11
507.25
 20
859.75
 21
859.75
  0
LINE
  8
0
 10
507.25
 11
507.25
 20
859.75
 21
893.75
  0
LINE
  8
0
 10
507.25
 11
424.75
 20
893.75
 21
893.75
  0
LINE
  8
0
 10
424.75
 11
424.75
 20
893.75
 21
859.75
  0
LINE
  8
0
 10
424.75
 11
412.25
 20
859.75
 21
859.75
  0
LINE
  8
0
 10
412.25
 11
412.25
 20
859.75
 21
777.25
  0
LINE
  8
0
 10
412.25
 11
424.75
 20
777.25
 21
777.25
  0
LINE
  8
0
 10
424.75
 11
424.75
 20
777.25
 21
742.25
  0
LINE
  8
0
 10
424.75
 11
412.25
 20
742.25
 21
742.25
  0
LINE
  8
0
 10
412.25
 11
412.25
 20
742.25
 21
659.75
  0
LINE
  8
0
 10
412.25
 11
424.75
 20
659.75
 21
659.75
  0
LINE
  8
0
 10
424.75
 11
424.75
 20
659.75
 21
624.75
  0
LINE
  8
0
 10
424.75
 11
412.25
 20
624.75
 21
624.75
  0
LINE
  8
0
 10
412.25
 11
412.25
 20
624.75
 21
542.25
  0
LINE
  8
0
 10
412.25
 11
424.75
 20
542.25
 21
542.25
  0
LINE
  8
0
 10
424.75
 11
424.75
 20
542.25
 21
507.25
  0
LINE
  8
0
 10
424.75
 11
412.25
 20
507.25
 21
507.25
  0
LINE
  8
0
 10
412.25
 11
412.25
 20
507.25
 21
424.75
  0
LINE
  8
0
 10
412.25
 11
424.75
 20
424.75
 21
424.75
  0
LINE
  8
0
 10
424.75
 11
424.75
 20
424.75
 21
389.75
  0
LINE
  8
0
 10
424.75
 11
412.25
 20
389.75
 21
389.75
  0
LINE
  8
0
 10
412.25
 11
412.25
 20
389.75
 21
307.25
  0
LINE
  8
0
 10
412.25
 11
424.75
 20
307.25
 21
307.25
  0
LINE
  8
0
 10
424.75
 11
424.75
 20
307.25
 21
272.25
  0
LINE
  8
0
 10
424.75
 11
412.25
 20
272.25
 21
272.25
  0
LINE
  8
0
 10
412.25
 11
412.25
 20
272.25
 21
189.75
  0
LINE
  8
0
 10
412.25
 11
424.75
 20
189.75
 21
189.75
  0
LINE
  8
0
 10
424.75
 11
424.75
 20
189.75
 21
154.75
  0
LINE
  8
0
 10
424.75
 11
412.25
 20
154.75
 21
154.75
  0
LINE
  8
0
 10
412.25
 11
412.25
 20
154.75
 21
72.25
  0
LINE
  8
0
 10
412.25
 11
424.75
 20
72.25
 21
72.25
  0
LINE
  8
0
 10
424.75
 11
424.75
 20
72.25
 21
37.25
  0
LINE
  8
0
 10
424.75
 11
416
 20
37.25
 21
37.25
  0
LINE
  8
0
 10
416
 11
416
 20
37.25
 21
28.25
  0
LINE
  8
0
 10
416
 11
281
 20
28.25
 21
28.25
  0
LINE
  8
0
 10
281
 11
281
 20
28.25
 21
37.25
  0
LINE
  8
0
 10
281
 11
272.25
 20
37.25
 21
37.25
  0
LINE
  8
0
 10
272.25
 11
272.25
 20
37.25
 21
72.25
  0
LINE
  8
0
 10
272.25
 11
284.75
 20
72.25
 21
72.25
  0
LINE
  8
0
 10
284.75
 11
284.75
 20
72.25
 21
154.75
  0
LINE
  8
0
 10
284.75
 11
272.25
 20
154.75
 21
154.75
  0
LINE
  8
0
 10
272.25
 11
272.25
 20
154.75
 21
189.75
  0
LINE
  8
0
 10
272.25
 11
284.75
 20
189.75
 21
189.75
  0
LINE
  8
0
 10
284.75
 11
284.75
 20
189.75
 21
272.25
  0
LINE
  8
0
 10
284.75
 11
272.25
 20
272.25
 21
272.25
  0
LINE
  8
0
 10
272.25
 11
272.25
 20
272.25
 21
307.25
  0
LINE
  8
0
 10
272.25
 11
284.75
 20
307.25
 21
307.25
  0
LINE
  8
0
 10
284.75
 11
284.75
 20
307.25
 21
389.75
  0
LINE
  8
0
 10
284.75
 11
272.25
 20
389.75
 21
389.75
  0
LINE
  8
0
 10
272.25
 11
272.25
 20
389.75
 21
424.75
  0
LINE
  8
0
 10
272.25
 11
284.75
 20
424.75
 21
424.75
  0
LINE
  8
0
 10
284.75
 11
284.75
 20
424.75
 21
507.25
  0
LINE
  8
0
 10
284.75
 11
272.25
 20
507.25
 21
507.25
  0
LINE
  8
0
 10
272.25
 11
272.25
 20
507.25
 21
542.25
  0
LINE
  8
0
 10
272.25
 11
284.75
 20
542.25
 21
542.25
  0
LINE
  8
0
 10
284.75
 11
284.75
 20
542.25
 21
624.75
  0
LINE
  8
0
 10
284.75
 11
272.25
 20
624.75
 21
624.75
  0
LINE
  8
0
 10
272.25
 11
272.25
 20
624.75
 21
659.75
  0
LINE
  8
0
 10
272.25
 11
284.75
 20
659.75
 21
659.75
  0
LINE
  8
0
 10
284.75
 11
284.75
 20
659.75
 21
742.25
  0
LINE
  8
0
 10
284.75
 11
272.25
 20
742.25
 21
742.25
  0
LINE
  8
0
 10
272.25
 11
272.25
 20
742.25
 21
777.25
  0
LINE
  8
0
 10
272.25
 11
284.75
 20
777.25
 21
777.25
  0
LINE
  8
0
 10
284.75
 11
284.75
 20
777.25
 21
859.75
  0
LINE
  8
0
 10
284.75
 11
272.25
 20
859.75
 21
859.75
  0
LINE
  8
0
 10
272.25
 11
272.25
 20
859.75
 21
893.75
  0
LINE
  8
0
 10
272.25
 11
189.75
 20
893.75
 21
893.75
  0
LINE
  8
0
 10
189.75
 11
189.75
 20
893.75
 21
859.75
  0
LINE
  8
0
 10
189.75
 11
177.25
 20
859.75
 21
859.75
  0
LINE
  8
0
 10
177.25
 11
177.25
 20
859.75
 21
777.25
  0
LINE
  8
0
 10
177.25
 11
189.75
 20
777.25
 21
777.25
  0
LINE
  8
0
 10
189.75
 11
189.75
 20
777.25
 21
742.25
  0
LINE
  8
0
 10
189.75
 11
177.25
 20
742.25
 21
742.25
  0
LINE
  8
0
 10
177.25
 11
177.25
 20
742.25
 21
659.75
  0
LINE
  8
0
 10
177.25
 11
189.75
 20
659.75
 21
659.75
  0
LINE
  8
0
 10
189.75
 11
189.75
 20
659.75
 21
624.75
  0
LINE
  8
0
 10
189.75
 11
177.25
 20
624.75
 21
624.75
  0
LINE
  8
0
 10
177.25
 11
177.25
 20
624.75
 21
542.25
  0
LINE
  8
0
 10
177.25
 11
189.75
 20
542.25
 21
542.25
  0
LINE
  8
0
 10
189.75
 11
189.75
 20
542.25
 21
507.25
  0
LINE
  8
0
 10
189.75
 11
177.25
 20
507.25
 21
507.25
  0
LINE
  8
0
 10
177.25
 11
177.25
 20
507.25
 21
424.75
  0
LINE
  8
0
 10
177.25
 11
189.75
 20
424.75
 21
424.75
  0
LINE
  8
0
 10
189.75
 11
189.75
 20
424.75
 21
389.75
  0
LINE
  8
0
 10
189.75
 11
177.25
 20
389.75
 21
389.75
  0
LINE
  8
0
 10
177.25
 11
177.25
 20
389.75
 21
307.25
  0
LINE
  8
0
 10
177.25
 11
189.75
 20
307.25
 21
307.25
  0
LINE
  8
0
 10
189.75
 11
189.75
 20
307.25
 21
272.25
  0
LINE
  8
0
 10
189.75
 11
177.25
 20
272.25
 21
272.25
  0
LINE
  8
0
 10
177.25
 11
177.25
 20
272.25
 21
189.75
  0
LINE
  8
0
 10
177.25
 11
189.75
 20
189.75
 21
189.75
  0
LINE
  8
0
 10
189.75
 11
189.75
 20
189.75
 21
154.75
  0
LINE
  8
0
 10
189.75
 11
177.25
 20
154.75
 21
154.75
  0
LINE
  8
0
 10
177.25
 11
177.25
 20
154.75
 21
72.25
  0
LINE
  8
0
 10
177.25
 11
189.75
 20
72.25
 21
72.25
  0
LINE
  8
0
 10
189.75
 11
189.75
 20
72.25
 21
37.25
  0
LINE
  8
0
 10
189.75
 11
181
 20
37.25
 21
37.25
  0
LINE
  8
0
 10
181
 11
181
 20
37.25
 21
28.25
  0
LINE
  8
0
 10
181
 11
46
 20
28.25
 21
28.25
  0
LINE
  8
0
 10
46
 11
46
 20
28.25
 21
37.25
  0
LINE
  8
0
 10
46
 11
37.25
 20
37.25
 21
37.25
  0
LINE
  8
0
 10
42
 11
42
 20
-352.5
 21
-317.499
  0
LINE
  8
0
 10
42
 11
56.001
 20
-317.499
 21
-317.499
  0
LINE
  8
0
 10
56.001
 11
56
 20
-317.499
 21
-324.5
  0
LINE
  8
0
 10
56
 11
63.001
 20
-324.5
 21
-324.5
  0
LINE
  8
0
 10
63.001
 11
63
 20
-324.5
 21
-317.499
  0
LINE
  8
0
 10
63
 11
70.001
 20
-317.499
 21
-317.499
  0
LINE
  8
0
 10
70.001
 11
70
 20
-317.499
 21
-324.5
  0
LINE
  8
0
 10
70
 11
77.001
 20
-324.5
 21
-324.499
  0
LINE
  8
0
 10
77.001
 11
77.001
 20
-324.499
 21
-352.5
  0
LINE
  8
0
 10
77.001
 11
70
 20
-352.5
 21
-352.5
  0
LINE
  8
0
 10
70
 11
63.001
 20
-352.5
 21
-338.5
  0
LINE
  8
0
 10
63.001
 11
56
 20
-338.5
 21
-338.5
  0
LINE
  8
0
 10
56
 11
49.001
 20
-338.5
 21
-324.5
  0
LINE
  8
0
 10
49.001
 11
49.001
 20
-324.5
 21
-352.5
  0
LINE
  8
0
 10
49.001
 11
42
 20
-352.5
 21
-352.5
  0
LINE
  8
0
 10
42
 11
42
 20
-228
 21
-213.999
  0
LINE
  8
0
 10
42
 11
49
 20
-213.999
 21
-213.999
  0
LINE
  8
0
 10
49
 11
49
 20
-213.999
 21
-207
  0
LINE
  8
0
 10
49
 11
42
 20
-207
 21
-207
  0
LINE
  8
0
 10
42
 11
42
 20
-207
 21
-192.999
  0
LINE
  8
0
 10
42
 11
49
 20
-192.999
 21
-192.999
  0
LINE
  8
0
 10
49
 11
49
 20
-192.999
 21
-185.999
  0
LINE
  8
0
 10
49
 11
70.001
 20
-185.999
 21
-185.999
  0
LINE
  8
0
 10
70.001
 11
70.001
 20
-185.999
 21
-192.999
  0
LINE
  8
0
 10
70.001
 11
77.001
 20
-192.999
 21
-192.999
  0
LINE
  8
0
 10
77.001
 11
77.001
 20
-192.999
 21
-207
  0
LINE
  8
0
 10
77.001
 11
70.001
 20
-207
 21
-207
  0
LINE
  8
0
 10
70.001
 11
70.001
 20
-207
 21
-213.999
  0
LINE
  8
0
 10
70.001
 11
77.001
 20
-213.999
 21
-213.999
  0
LINE
  8
0
 10
77.001
 11
77.001
 20
-213.999
 21
-228
  0
LINE
  8
0
 10
77.001
 11
70.001
 20
-228
 21
-228
  0
LINE
  8
0
 10
70.001
 11
70.001
 20
-228
 21
-235
  0
LINE
  8
0
 10
70.001
 11
49
 20
-235
 21
-235
  0
LINE
  8
0
 10
49
 11
49
 20
-235
 21
-228
  0
LINE
  8
0
 10
49
 11
42
 20
-228
 21
-228
  0
LINE
  8
0
 10
42
 11
42
 20
-117.5
 21
-110.499
  0
LINE
  8
0
 10
42
 11
49.001
 20
-110.499
 21
-110.5
  0
LINE
  8
0
 10
49.001
 11
49
 20
-110.5
 21
-103.499
  0
LINE
  8
0
 10
49
 11
56.001
 20
-103.499
 21
-103.5
  0
LINE
  8
0
 10
56.001
 11
56.001
 20
-103.5
 21
-96.499
  0
LINE
  8
0
 10
56.001
 11
49
 20
-96.499
 21
-96.5
  0
LINE
  8
0
 10
49
 11
49.001
 20
-96.5
 21
-89.499
  0
LINE
  8
0
 10
49.001
 11
42
 20
-89.499
 21
-89.5
  0
LINE
  8
0
 10
42
 11
42
 20
-89.5
 21
-82.499
  0
LINE
  8
0
 10
42
 11
49.001
 20
-82.499
 21
-82.499
  0
LINE
  8
0
 10
49.001
 11
56.001
 20
-82.499
 21
-89.499
  0
LINE
  8
0
 10
56.001
 11
63.001
 20
-89.499
 21
-96.5
  0
LINE
  8
0
 10
63.001
 11
63
 20
-96.5
 21
-89.499
  0
LINE
  8
0
 10
63
 11
70.001
 20
-89.499
 21
-89.5
  0
LINE
  8
0
 10
70.001
 11
70
 20
-89.5
 21
-82.499
  0
LINE
  8
0
 10
70
 11
77.001
 20
-82.499
 21
-82.499
  0
LINE
  8
0
 10
77.001
 11
77.001
 20
-82.499
 21
-89.5
  0
LINE
  8
0
 10
77.001
 11
70.001
 20
-89.5
 21
-96.5
  0
LINE
  8
0
 10
70.001
 11
63
 20
-96.5
 21
-103.5
  0
LINE
  8
0
 10
63
 11
70.001
 20
-103.5
 21
-103.499
  0
LINE
  8
0
 10
70.001
 11
70
 20
-103.499
 21
-110.5
  0
LINE
  8
0
 10
70
 11
77.001
 20
-110.5
 21
-110.499
  0
LINE
  8
0
 10
77.001
 11
77.001
 20
-110.499
 21
-117.5
  0
LINE
  8
0
 10
77.001
 11
70
 20
-117.5
 21
-117.5
  0
LINE
  8
0
 10
70
 11
63
 20
-117.5
 21
-110.5
  0
LINE
  8
0
 10
63
 11
56.001
 20
-110.5
 21
-110.5
  0
LINE
  8
0
 10
56.001
 11
49.001
 20
-110.5
 21
-117.5
  0
LINE
  8
0
 10
49.001
 11
42
 20
-117.5
 21
-117.5
  0
LINE
  8
0
 10
84
 11
84
 20
-352.5
 21
-317.499
  0
LINE
  8
0
 10
84
 11
98.001
 20
-317.499
 21
-317.499
  0
LINE
  8
0
 10
98.001
 11
98
 20
-317.499
 21
-324.5
  0
LINE
  8
0
 10
98
 11
105.001
 20
-324.5
 21
-324.5
  0
LINE
  8
0
 10
105.001
 11
105
 20
-324.5
 21
-317.499
  0
LINE
  8
0
 10
105
 11
112.001
 20
-317.499
 21
-317.499
  0
LINE
  8
0
 10
112.001
 11
112
 20
-317.499
 21
-324.5
  0
LINE
  8
0
 10
112
 11
119.001
 20
-324.5
 21
-324.499
  0
LINE
  8
0
 10
119.001
 11
119.001
 20
-324.499
 21
-352.5
  0
LINE
  8
0
 10
119.001
 11
112
 20
-352.5
 21
-352.5
  0
LINE
  8
0
 10
112
 11
105.001
 20
-352.5
 21
-338.5
  0
LINE
  8
0
 10
105.001
 11
98
 20
-338.5
 21
-338.5
  0
LINE
  8
0
 10
98
 11
91.001
 20
-338.5
 21
-324.5
  0
LINE
  8
0
 10
91.001
 11
91.001
 20
-324.5
 21
-352.5
  0
LINE
  8
0
 10
91.001
 11
84
 20
-352.5
 21
-352.5
  0
LINE
  8
0
 10
84
 11
84
 20
-235
 21
-199.999
  0
LINE
  8
0
 10
84
 11
98.001
 20
-199.999
 21
-199.999
  0
LINE
  8
0
 10
98.001
 11
98
 20
-199.999
 21
-207
  0
LINE
  8
0
 10
98
 11
105.001
 20
-207
 21
-207
  0
LINE
  8
0
 10
105.001
 11
105
 20
-207
 21
-199.999
  0
LINE
  8
0
 10
105
 11
112.001
 20
-199.999
 21
-199.999
  0
LINE
  8
0
 10
112.001
 11
112
 20
-199.999
 21
-207
  0
LINE
  8
0
 10
112
 11
119.001
 20
-207
 21
-206.999
  0
LINE
  8
0
 10
119.001
 11
119.001
 20
-206.999
 21
-235
  0
LINE
  8
0
 10
119.001
 11
112
 20
-235
 21
-235
  0
LINE
  8
0
 10
112
 11
105.001
 20
-235
 21
-221
  0
LINE
  8
0
 10
105.001
 11
98
 20
-221
 21
-221
  0
LINE
  8
0
 10
98
 11
91.001
 20
-221
 21
-207
  0
LINE
  8
0
 10
91.001
 11
91.001
 20
-207
 21
-235
  0
LINE
  8
0
 10
91.001
 11
84
 20
-235
 21
-235
  0
LINE
  8
0
 10
126
 11
126
 20
-235
 21
-199.999
  0
LINE
  8
0
 10
126
 11
140.001
 20
-199.999
 21
-199.999
  0
LINE
  8
0
 10
140.001
 11
140
 20
-199.999
 21
-207
  0
LINE
  8
0
 10
140
 11
147.001
 20
-207
 21
-207
  0
LINE
  8
0
 10
147.001
 11
147
 20
-207
 21
-199.999
  0
LINE
  8
0
 10
147
 11
154.001
 20
-199.999
 21
-199.999
  0
LINE
  8
0
 10
154.001
 11
154
 20
-199.999
 21
-207
  0
LINE
  8
0
 10
154
 11
161.001
 20
-207
 21
-206.999
  0
LINE
  8
0
 10
161.001
 11
161.001
 20
-206.999
 21
-235
  0
LINE
  8
0
 10
161.001
 11
154
 20
-235
 21
-235
  0
LINE
  8
0
 10
154
 11
147.001
 20
-235
 21
-221
  0
LINE
  8
0
 10
147.001
 11
140
 20
-221
 21
-221
  0
LINE
  8
0
 10
140
 11
133.001
 20
-221
 21
-207
  0
LINE
  8
0
 10
133.001
 11
133.001
 20
-207
 21
-235
  0
LINE
  8
0
 10
133.001
 11
126
 20
-235
 21
-235
  0
LINE
  8
0
 10
168
 11
168
 20
-352.5
 21
-317.499
  0
LINE
  8
0
 10
168
 11
182.001
 20
-317.499
 21
-317.499
  0
LINE
  8
0
 10
182.001
 11
182
 20
-317.499
 21
-324.5
  0
LINE
  8
0
 10
182
 11
189.001
 20
-324.5
 21
-324.5
  0
LINE
  8
0
 10
189.001
 11
189
 20
-324.5
 21
-317.499
  0
LINE
  8
0
 10
189
 11
196.001
 20
-317.499
 21
-317.499
  0
LINE
  8
0
 10
196.001
 11
196
 20
-317.499
 21
-324.5
  0
LINE
  8
0
 10
196
 11
203.001
 20
-324.5
 21
-324.499
  0
LINE
  8
0
 10
203.001
 11
203.001
 20
-324.499
 21
-352.5
  0
LINE
  8
0
 10
203.001
 11
196
 20
-352.5
 21
-352.5
  0
LINE
  8
0
 10
196
 11
189.001
 20
-352.5
 21
-338.5
  0
LINE
  8
0
 10
189.001
 11
182
 20
-338.5
 21
-338.5
  0
LINE
  8
0
 10
182
 11
175.001
 20
-338.5
 21
-324.5
  0
LINE
  8
0
 10
175.001
 11
175.001
 20
-324.5
 21
-352.5
  0
LINE
  8
0
 10
175.001
 11
168
 20
-352.5
 21
-352.5
  0
LINE
  8
0
 10
210
 11
210
 20
-207
 21
-199.999
  0
LINE
  8
0
 10
210
 11
217
 20
-199.999
 21
-199.999
  0
LINE
  8
0
 10
217
 11
217
 20
-199.999
 21
-185.999
  0
LINE
  8
0
 10
217
 11
224.001
 20
-185.999
 21
-185.999
  0
LINE
  8
0
 10
224.001
 11
224.001
 20
-185.999
 21
-199.999
  0
LINE
  8
0
 10
224.001
 11
231.001
 20
-199.999
 21
-199.999
  0
LINE
  8
0
 10
231.001
 11
231.001
 20
-199.999
 21
-207
  0
LINE
  8
0
 10
231.001
 11
224.001
 20
-207
 21
-207
  0
LINE
  8
0
 10
224.001
 11
224
 20
-207
 21
-228
  0
LINE
  8
0
 10
224
 11
238.001
 20
-228
 21
-228
  0
LINE
  8
0
 10
238.001
 11
238
 20
-228
 21
-220.999
  0
LINE
  8
0
 10
238
 11
245.001
 20
-220.999
 21
-220.999
  0
LINE
  8
0
 10
245.001
 11
245.001
 20
-220.999
 21
-228
  0
LINE
  8
0
 10
245.001
 11
238.001
 20
-228
 21
-235
  0
LINE
  8
0
 10
238.001
 11
224
 20
-235
 21
-235
  0
LINE
  8
0
 10
224
 11
217
 20
-235
 21
-228
  0
LINE
  8
0
 10
217
 11
217
 20
-228
 21
-207
  0
LINE
  8
0
 10
217
 11
210
 20
-207
 21
-207
  0
LINE
  8
0
 10
217
 11
217
 20
-352.5
 21
-345.499
  0
LINE
  8
0
 10
217
 11
224
 20
-345.499
 21
-345.499
  0
LINE
  8
0
 10
224
 11
224
 20
-345.499
 21
-324.5
  0
LINE
  8
0
 10
224
 11
217
 20
-324.5
 21
-324.5
  0
LINE
  8
0
 10
217
 11
217
 20
-324.5
 21
-317.499
  0
LINE
  8
0
 10
217
 11
231.001
 20
-317.499
 21
-317.499
  0
LINE
  8
0
 10
231.001
 11
231.001
 20
-317.499
 21
-345.499
  0
LINE
  8
0
 10
231.001
 11
238.001
 20
-345.499
 21
-345.499
  0
LINE
  8
0
 10
238.001
 11
238.001
 20
-345.499
 21
-352.5
  0
LINE
  8
0
 10
238.001
 11
217
 20
-352.5
 21
-352.5
  0
LINE
  8
0
 10
224
 11
224
 20
-310.5
 21
-303.499
  0
LINE
  8
0
 10
224
 11
231.001
 20
-303.499
 21
-303.499
  0
LINE
  8
0
 10
231.001
 11
231.001
 20
-303.499
 21
-310.5
  0
LINE
  8
0
 10
231.001
 11
224
 20
-310.5
 21
-310.5
  0
LINE
  8
0
 10
252
 11
252
 20
-235
 21
-185.999
  0
LINE
  8
0
 10
252
 11
259.001
 20
-185.999
 21
-185.999
  0
LINE
  8
0
 10
259.001
 11
259.001
 20
-185.999
 21
-206.999
  0
LINE
  8
0
 10
259.001
 11
266.001
 20
-206.999
 21
-207
  0
LINE
  8
0
 10
266.001
 11
266
 20
-207
 21
-199.999
  0
LINE
  8
0
 10
266
 11
280.001
 20
-199.999
 21
-199.999
  0
LINE
  8
0
 10
280.001
 11
280
 20
-199.999
 21
-207
  0
LINE
  8
0
 10
280
 11
287.001
 20
-207
 21
-206.999
  0
LINE
  8
0
 10
287.001
 11
287.001
 20
-206.999
 21
-235
  0
LINE
  8
0
 10
287.001
 11
280
 20
-235
 21
-235
  0
LINE
  8
0
 10
280
 11
266.001
 20
-235
 21
-214
  0
LINE
  8
0
 10
266.001
 11
259.001
 20
-214
 21
-214
  0
LINE
  8
0
 10
259.001
 11
259.001
 20
-214
 21
-235
  0
LINE
  8
0
 10
259.001
 11
252
 20
-235
 21
-235
  0
LINE
  8
0
 10
259
 11
259
 20
-352.5
 21
-345.499
  0
LINE
  8
0
 10
259
 11
266
 20
-345.499
 21
-345.499
  0
LINE
  8
0
 10
266
 11
266
 20
-345.499
 21
-310.5
  0
LINE
  8
0
 10
266
 11
259
 20
-310.5
 21
-310.5
  0
LINE
  8
0
 10
259
 11
259
 20
-310.5
 21
-303.499
  0
LINE
  8
0
 10
259
 11
273.001
 20
-303.499
 21
-303.499
  0
LINE
  8
0
 10
273.001
 11
273.001
 20
-303.499
 21
-345.499
  0
LINE
  8
0
 10
273.001
 11
280.001
 20
-345.499
 21
-345.499
  0
LINE
  8
0
 10
280.001
 11
280.001
 20
-345.499
 21
-352.5
  0
LINE
  8
0
 10
280.001
 11
259
 20
-352.5
 21
-352.5
  0
LINE
  8
0
 10
301
 11
301
 20
-352.5
 21
-345.499
  0
LINE
  8
0
 10
301
 11
308
 20
-345.499
 21
-345.499
  0
LINE
  8
0
 10
308
 11
308
 20
-345.499
 21
-310.5
  0
LINE
  8
0
 10
308
 11
301
 20
-310.5
 21
-310.5
  0
LINE
  8
0
 10
301
 11
301
 20
-310.5
 21
-303.499
  0
LINE
  8
0
 10
301
 11
315.001
 20
-303.499
 21
-303.499
  0
LINE
  8
0
 10
315.001
 11
315.001
 20
-303.499
 21
-345.499
  0
LINE
  8
0
 10
315.001
 11
322.001
 20
-345.499
 21
-345.499
  0
LINE
  8
0
 10
322.001
 11
322.001
 20
-345.499
 21
-352.5
  0
LINE
  8
0
 10
322.001
 11
301
 20
-352.5
 21
-352.5
  0
LINE
  8
0
 10
301
 11
301
 20
-235
 21
-227.999
  0
LINE
  8
0
 10
301
 11
308
 20
-227.999
 21
-227.999
  0
LINE
  8
0
 10
308
 11
308
 20
-227.999
 21
-207
  0
LINE
  8
0
 10
308
 11
301
 20
-207
 21
-207
  0
LINE
  8
0
 10
301
 11
301
 20
-207
 21
-199.999
  0
LINE
  8
0
 10
301
 11
315.001
 20
-199.999
 21
-199.999
  0
LINE
  8
0
 10
315.001
 11
315.001
 20
-199.999
 21
-227.999
  0
LINE
  8
0
 10
315.001
 11
322.001
 20
-227.999
 21
-227.999
  0
LINE
  8
0
 10
322.001
 11
322.001
 20
-227.999
 21
-235
  0
LINE
  8
0
 10
322.001
 11
301
 20
-235
 21
-235
  0
LINE
  8
0
 10
308
 11
308
 20
-193
 21
-185.999
  0
LINE
  8
0
 10
308
 11
315.001
 20
-185.999
 21
-185.999
  0
LINE
  8
0
 10
315.001
 11
315.001
 20
-185.999
 21
-193
  0
LINE
  8
0
 10
315.001
 11
308
 20
-193
 21
-193
  0
LINE
  8
0
 10
336
 11
336
 20
-345.5
 21
-324.499
  0
LINE
  8
0
 10
336
 11
343
 20
-324.499
 21
-324.499
  0
LINE
  8
0
 10
343
 11
343
 20
-324.499
 21
-317.499
  0
LINE
  8
0
 10
343
 11
364.001
 20
-317.499
 21
-317.499
  0
LINE
  8
0
 10
364.001
 11
364.001
 20
-317.499
 21
-324.499
  0
LINE
  8
0
 10
364.001
 11
371.001
 20
-324.499
 21
-324.499
  0
LINE
  8
0
 10
371.001
 11
371.001
 20
-324.499
 21
-338.5
  0
LINE
  8
0
 10
371.001
 11
343.001
 20
-338.5
 21
-338.5
  0
LINE
  8
0
 10
343.001
 11
343
 20
-338.5
 21
-345.5
  0
LINE
  8
0
 10
343
 11
364.001
 20
-345.5
 21
-345.499
  0
LINE
  8
0
 10
364.001
 11
364.001
 20
-345.499
 21
-352.5
  0
LINE
  8
0
 10
364.001
 11
343
 20
-352.5
 21
-352.5
  0
LINE
  8
0
 10
343
 11
336
 20
-352.5
 21
-345.5
  0
LINE
  8
0
 10
336
 11
336
 20
-228
 21
-206.999
  0
LINE
  8
0
 10
336
 11
343.001
 20
-206.999
 21
-207
  0
LINE
  8
0
 10
343.001
 11
343
 20
-207
 21
-199.999
  0
LINE
  8
0
 10
343
 11
364.001
 20
-199.999
 21
-199.999
  0
LINE
  8
0
 10
364.001
 11
364.001
 20
-199.999
 21
-207
  0
LINE
  8
0
 10
364.001
 11
343
 20
-207
 21
-228
  0
LINE
  8
0
 10
343
 11
364.001
 20
-228
 21
-228
  0
LINE
  8
0
 10
364.001
 11
364
 20
-228
 21
-220.999
  0
LINE
  8
0
 10
364
 11
371.001
 20
-220.999
 21
-220.999
  0
LINE
  8
0
 10
371.001
 11
371.001
 20
-220.999
 21
-228
  0
LINE
  8
0
 10
371.001
 11
364.001
 20
-228
 21
-235
  0
LINE
  8
0
 10
364.001
 11
343
 20
-235
 21
-235
  0
LINE
  8
0
 10
343
 11
336
 20
-235
 21
-228
  0
LINE
  8
0
 10
378
 11
378
 20
-345.5
 21
-324.499
  0
LINE
  8
0
 10
378
 11
385
 20
-324.499
 21
-324.499
  0
LINE
  8
0
 10
385
 11
385
 20
-324.499
 21
-317.499
  0
LINE
  8
0
 10
385
 11
399.001
 20
-317.499
 21
-317.499
  0
LINE
  8
0
 10
399.001
 11
399.001
 20
-317.499
 21
-324.499
  0
LINE
  8
0
 10
399.001
 11
406
 20
-324.499
 21
-324.499
  0
LINE
  8
0
 10
406
 11
406
 20
-324.499
 21
-303.499
  0
LINE
  8
0
 10
406
 11
413.001
 20
-303.499
 21
-303.499
  0
LINE
  8
0
 10
413.001
 11
413.001
 20
-303.499
 21
-352.5
  0
LINE
  8
0
 10
413.001
 11
385
 20
-352.5
 21
-352.5
  0
LINE
  8
0
 10
385
 11
385
 20
-352.5
 21
-345.5
  0
LINE
  8
0
 10
385
 11
378
 20
-345.5
 21
-345.5
  0
LINE
  8
0
 10
378
 11
378
 20
-235
 21
-185.999
  0
LINE
  8
0
 10
378
 11
385.001
 20
-185.999
 21
-185.999
  0
LINE
  8
0
 10
385.001
 11
385.001
 20
-185.999
 21
-213.999
  0
LINE
  8
0
 10
385.001
 11
392.001
 20
-213.999
 21
-214
  0
LINE
  8
0
 10
392.001
 11
392
 20
-214
 21
-206.999
  0
LINE
  8
0
 10
392
 11
399.001
 20
-206.999
 21
-207
  0
LINE
  8
0
 10
399.001
 11
399
 20
-207
 21
-199.999
  0
LINE
  8
0
 10
399
 11
406.001
 20
-199.999
 21
-199.999
  0
LINE
  8
0
 10
406.001
 11
406.001
 20
-199.999
 21
-207
  0
LINE
  8
0
 10
406.001
 11
399.001
 20
-207
 21
-214
  0
LINE
  8
0
 10
399.001
 11
392
 20
-214
 21
-221
  0
LINE
  8
0
 10
392
 11
399.001
 20
-221
 21
-220.999
  0
LINE
  8
0
 10
399.001
 11
399
 20
-220.999
 21
-228
  0
LINE
  8
0
 10
399
 11
406.001
 20
-228
 21
-227.999
  0
LINE
  8
0
 10
406.001
 11
406.001
 20
-227.999
 21
-235
  0
LINE
  8
0
 10
406.001
 11
399
 20
-235
 21
-235
  0
LINE
  8
0
 10
399
 11
392
 20
-235
 21
-228
  0
LINE
  8
0
 10
392
 11
385.001
 20
-228
 21
-221
  0
LINE
  8
0
 10
385.001
 11
385.001
 20
-221
 21
-235
  0
LINE
  8
0
 10
385.001
 11
378
 20
-235
 21
-235
  0
LINE
  8
0
 10
399
 11
406
 20
-331.5
 21
-331.5
  0
LINE
  8
0
 10
406
 11
406
 20
-331.5
 21
-345.499
  0
LINE
  8
0
 10
406
 11
399
 20
-345.499
 21
-331.5
  0
LINE
  8
0
 10
1057.5
 11
1057.5
 20
-110.5
 21
-103.499
  0
LINE
  8
0
 10
1057.5
 11
1064.5
 20
-103.499
 21
-103.499
  0
LINE
  8
0
 10
1064.5
 11
1064.5
 20
-103.499
 21
-110.5
  0
LINE
  8
0
 10
1064.5
 11
1085.5
 20
-110.5
 21
-110.5
  0
LINE
  8
0
 10
1085.5
 11
1085.5
 20
-110.5
 21
-96.499
  0
LINE
  8
0
 10
1085.5
 11
1078.5
 20
-96.499
 21
-96.5
  0
LINE
  8
0
 10
1078.5
 11
1078.5
 20
-96.5
 21
-89.499
  0
LINE
  8
0
 10
1078.5
 11
1071.5
 20
-89.499
 21
-89.5
  0
LINE
  8
0
 10
1071.5
 11
1071.5
 20
-89.5
 21
-82.499
  0
LINE
  8
0
 10
1071.5
 11
1078.5
 20
-82.499
 21
-82.5
  0
LINE
  8
0
 10
1078.5
 11
1078.5
 20
-82.5
 21
-75.5
  0
LINE
  8
0
 10
1078.5
 11
1057.5
 20
-75.5
 21
-75.5
  0
LINE
  8
0
 10
1057.5
 11
1057.5
 20
-75.5
 21
-68.499
  0
LINE
  8
0
 10
1057.5
 11
1092.5
 20
-68.499
 21
-68.499
  0
LINE
  8
0
 10
1092.5
 11
1092.5
 20
-68.499
 21
-75.5
  0
LINE
  8
0
 10
1092.5
 11
1085.5
 20
-75.5
 21
-75.5
  0
LINE
  8
0
 10
1085.5
 11
1085.5
 20
-75.5
 21
-89.499
  0
LINE
  8
0
 10
1085.5
 11
1092.5
 20
-89.499
 21
-96.499
  0
LINE
  8
0
 10
1092.5
 11
1092.5
 20
-96.499
 21
-110.5
  0
LINE
  8
0
 10
1092.5
 11
1085.5
 20
-110.5
 21
-117.5
  0
LINE
  8
0
 10
1085.5
 11
1064.5
 20
-117.5
 21
-117.5
  0
LINE
  8
0
 10
1064.5
 11
1057.5
 20
-117.5
 21
-110.5
  0
LINE
  8
0
 10
1057.5
 11
1057.5
 20
0
 21
111.5
  0
LINE
  8
0
 10
1057.5
 11
1169
 20
111.5
 21
111.5
  0
LINE
  8
0
 10
1169
 11
1169
 20
111.5
 21
0
  0
LINE
  8
0
 10
1169
 11
1057.5
 20
0
 21
0
  0
LINE
  8
0
 10
1057.5
 11
1057.5
 20
115.5
 21
229
  0
LINE
  8
0
 10
1057.5
 11
1169
 20
229
 21
229
  0
LINE
  8
0
 10
1169
 11
1169
 20
229
 21
115.5
  0
LINE
  8
0
 10
1169
 11
1057.5
 20
115.5
 21
115.5
  0
LINE
  8
0
 10
1057.5
 11
1057.5
 20
233
 21
346.5
  0
LINE
  8
0
 10
1057.5
 11
1169
 20
346.5
 21
346.5
  0
LINE
  8
0
 10
1169
 11
1169
 20
346.5
 21
233
  0
LINE
  8
0
 10
1169
 11
1057.5
 20
233
 21
233
  0
LINE
  8
0
 10
1057.5
 11
1057.5
 20
350.5
 21
464
  0
LINE
  8
0
 10
1057.5
 11
1169
 20
464
 21
464
  0
LINE
  8
0
 10
1169
 11
1169
 20
464
 21
350.5
  0
LINE
  8
0
 10
1169
 11
1057.5
 20
350.5
 21
350.5
  0
LINE
  8
0
 10
1057.5
 11
1057.5
 20
468
 21
581.5
  0
LINE
  8
0
 10
1057.5
 11
1169
 20
581.5
 21
581.5
  0
LINE
  8
0
 10
1169
 11
1169
 20
581.5
 21
468
  0
LINE
  8
0
 10
1169
 11
1057.5
 20
468
 21
468
  0
LINE
  8
0
 10
1057.5
 11
1057.5
 20
585.5
 21
699
  0
LINE
  8
0
 10
1057.5
 11
1169
 20
699
 21
699
  0
LINE
  8
0
 10
1169
 11
1169
 20
699
 21
585.5
  0
LINE
  8
0
 10
1169
 11
1057.5
 20
585.5
 21
585.5
  0
LINE
  8
0
 10
1057.5
 11
1057.5
 20
703
 21
816.5
  0
LINE
  8
0
 10
1057.5
 11
1169
 20
816.5
 21
816.5
  0
LINE
  8
0
 10
1169
 11
1169
 20
816.5
 21
703
  0
LINE
  8
0
 10
1169
 11
1057.5
 20
703
 21
703
  0
LINE
  8
0
 10
1057.5
 11
1057.5
 20
820.5
 21
932
  0
LINE
  8
0
 10
1057.5
 11
1169
 20
932
 21
932
  0
LINE
  8
0
 10
1169
 11
1169
 20
932
 21
820.5
  0
LINE
  8
0
 10
1169
 11
1057.5
 20
820.5
 21
820.5
  0
LINE
  8
0
 10
1099.5
 11
1099.5
 20
-117.5
 21
-82.499
  0
LINE
  8
0
 10
1099.5
 11
1113.5
 20
-82.499
 21
-82.499
  0
LINE
  8
0
 10
1113.5
 11
1113.5
 20
-82.499
 21
-89.5
  0
LINE
  8
0
 10
1113.5
 11
1120.5
 20
-89.5
 21
-89.5
  0
LINE
  8
0
 10
1120.5
 11
1120.5
 20
-89.5
 21
-82.499
  0
LINE
  8
0
 10
1120.5
 11
1127.5
 20
-82.499
 21
-82.499
  0
LINE
  8
0
 10
1127.5
 11
1127.5
 20
-82.499
 21
-89.5
  0
LINE
  8
0
 10
1127.5
 11
1134.5
 20
-89.5
 21
-89.499
  0
LINE
  8
0
 10
1134.5
 11
1134.5
 20
-89.499
 21
-117.5
  0
LINE
  8
0
 10
1134.5
 11
1127.5
 20
-117.5
 21
-117.5
  0
LINE
  8
0
 10
1127.5
 11
1120.5
 20
-117.5
 21
-103.5
  0
LINE
  8
0
 10
1120.5
 11
1113.5
 20
-103.5
 21
-103.5
  0
LINE
  8
0
 10
1113.5
 11
1106.5
 20
-103.5
 21
-89.5
  0
LINE
  8
0
 10
1106.5
 11
1106.5
 20
-89.5
 21
-117.5
  0
LINE
  8
0
 10
1106.5
 11
1099.5
 20
-117.5
 21
-117.5
  0
LINE
  8
0
 10
1141.5
 11
1141.5
 20
-117.5
 21
-82.499
  0
LINE
  8
0
 10
1141.5
 11
1155.5
 20
-82.499
 21
-82.499
  0
LINE
  8
0
 10
1155.5
 11
1155.5
 20
-82.499
 21
-89.5
  0
LINE
  8
0
 10
1155.5
 11
1162.5
 20
-89.5
 21
-89.5
  0
LINE
  8
0
 10
1162.5
 11
1162.5
 20
-89.5
 21
-82.499
  0
LINE
  8
0
 10
1162.5
 11
1169.5
 20
-82.499
 21
-82.499
  0
LINE
  8
0
 10
1169.5
 11
1169.5
 20
-82.499
 21
-89.5
  0
LINE
  8
0
 10
1169.5
 11
1176.5
 20
-89.5
 21
-89.499
  0
LINE
  8
0
 10
1176.5
 11
1176.5
 20
-89.499
 21
-117.5
  0
LINE
  8
0
 10
1176.5
 11
1169.5
 20
-117.5
 21
-117.5
  0
LINE
  8
0
 10
1169.5
 11
1162.5
 20
-117.5
 21
-103.5
  0
LINE
  8
0
 10
1162.5
 11
1155.5
 20
-103.5
 21
-103.5
  0
LINE
  8
0
 10
1155.5
 11
1148.5
 20
-103.5
 21
-89.5
  0
LINE
  8
0
 10
1148.5
 11
1148.5
 20
-89.5
 21
-117.5
  0
LINE
  8
0
 10
1148.5
 11
1141.5
 20
-117.5
 21
-117.5
  0
LINE
  8
0
 10
1173
 11
1173
 20
0
 21
111.5
  0
LINE
  8
0
 10
1173
 11
1286.5
 20
111.5
 21
111.5
  0
LINE
  8
0
 10
1286.5
 11
1286.5
 20
111.5
 21
0
  0
LINE
  8
0
 10
1286.5
 11
1173
 20
0
 21
0
  0
LINE
  8
0
 10
1173
 11
1173
 20
115.5
 21
229
  0
LINE
  8
0
 10
1173
 11
1286.5
 20
229
 21
229
  0
LINE
  8
0
 10
1286.5
 11
1286.5
 20
229
 21
115.5
  0
LINE
  8
0
 10
1286.5
 11
1173
 20
115.5
 21
115.5
  0
LINE
  8
0
 10
1173
 11
1173
 20
233
 21
346.5
  0
LINE
  8
0
 10
1173
 11
1286.5
 20
346.5
 21
346.5
  0
LINE
  8
0
 10
1286.5
 11
1286.5
 20
346.5
 21
233
  0
LINE
  8
0
 10
1286.5
 11
1173
 20
233
 21
233
  0
LINE
  8
0
 10
1173
 11
1173
 20
350.5
 21
464
  0
LINE
  8
0
 10
1173
 11
1286.5
 20
464
 21
464
  0
LINE
  8
0
 10
1286.5
 11
1286.5
 20
464
 21
350.5
  0
LINE
  8
0
 10
1286.5
 11
1173
 20
350.5
 21
350.5
  0
LINE
  8
0
 10
1173
 11
1173
 20
468
 21
581.5
  0
LINE
  8
0
 10
1173
 11
1286.5
 20
581.5
 21
581.5
  0
LINE
  8
0
 10
1286.5
 11
1286.5
 20
581.5
 21
468
  0
LINE
  8
0
 10
1286.5
 11
1173
 20
468
 21
468
  0
LINE
  8
0
 10
1173
 11
1173
 20
585.5
 21
699
  0
LINE
  8
0
 10
1173
 11
1286.5
 20
699
 21
699
  0
LINE
  8
0
 10
1286.5
 11
1286.5
 20
699
 21
585.5
  0
LINE
  8
0
 10
1286.5
 11
1173
 20
585.5
 21
585.5
  0
LINE
  8
0
 10
1173
 11
1173
 20
703
 21
816.5
  0
LINE
  8
0
 10
1173
 11
1286.5
 20
816.5
 21
816.5
  0
LINE
  8
0
 10
1286.5
 11
1286.5
 20
816.5
 21
703
  0
LINE
  8
0
 10
1286.5
 11
1173
 20
703
 21
703
  0
LINE
  8
0
 10
1173
 11
1173
 20
820.5
 21
932
  0
LINE
  8
0
 10
1173
 11
1286.5
 20
932
 21
932
  0
LINE
  8
0
 10
1286.5
 11
1286.5
 20
932
 21
820.5
  0
LINE
  8
0
 10
1286.5
 11
1173
 20
820.5
 21
820.5
  0
LINE
  8
0
 10
1225.5
 11
1225.5
 20
-117.5
 21
-82.499
  0
LINE
  8
0
 10
1225.5
 11
1239.5
 20
-82.499
 21
-82.499
  0
LINE
  8
0
 10
1239.5
 11
1239.5
 20
-82.499
 21
-89.5
  0
LINE
  8
0
 10
1239.5
 11
1246.5
 20
-89.5
 21
-89.5
  0
LINE
  8
0
 10
1246.5
 11
1246.5
 20
-89.5
 21
-82.499
  0
LINE
  8
0
 10
1246.5
 11
1253.5
 20
-82.499
 21
-82.499
  0
LINE
  8
0
 10
1253.5
 11
1253.5
 20
-82.499
 21
-89.5
  0
LINE
  8
0
 10
1253.5
 11
1260.5
 20
-89.5
 21
-89.499
  0
LINE
  8
0
 10
1260.5
 11
1260.5
 20
-89.499
 21
-117.5
  0
LINE
  8
0
 10
1260.5
 11
1253.5
 20
-117.5
 21
-117.5
  0
LINE
  8
0
 10
1253.5
 11
1246.5
 20
-117.5
 21
-103.5
  0
LINE
  8
0
 10
1246.5
 11
1239.5
 20
-103.5
 21
-103.5
  0
LINE
  8
0
 10
1239.5
 11
1232.5
 20
-103.5
 21
-89.5
  0
LINE
  8
0
 10
1232.5
 11
1232.5
 20
-89.5
 21
-117.5
  0
LINE
  8
0
 10
1232.5
 11
1225.5
 20
-117.5
 21
-117.5
  0
LINE
  8
0
 10
1274.5
 11
1274.5
 20
-117.5
 21
-110.499
  0
LINE
  8
0
 10
1274.5
 11
1281.5
 20
-110.499
 21
-110.499
  0
LINE
  8
0
 10
1281.5
 11
1281.5
 20
-110.499
 21
-89.5
  0
LINE
  8
0
 10
1281.5
 11
1274.5
 20
-89.5
 21
-89.5
  0
LINE
  8
0
 10
1274.5
 11
1274.5
 20
-89.5
 21
-82.499
  0
LINE
  8
0
 10
1274.5
 11
1288.5
 20
-82.499
 21
-82.499
  0
LINE
  8
0
 10
1288.5
 11
1288.5
 20
-82.499
 21
-110.499
  0
LINE
  8
0
 10
1288.5
 11
1295.5
 20
-110.499
 21
-110.499
  0
LINE
  8
0
 10
1295.5
 11
1295.5
 20
-110.499
 21
-117.5
  0
LINE
  8
0
 10
1295.5
 11
1274.5
 20
-117.5
 21
-117.5
  0
LINE
  8
0
 10
1281.5
 11
1281.5
 20
-75.5
 21
-68.499
  0
LINE
  8
0
 10
1281.5
 11
1288.5
 20
-68.499
 21
-68.499
  0
LINE
  8
0
 10
1288.5
 11
1288.5
 20
-68.499
 21
-75.5
  0
LINE
  8
0
 10
1288.5
 11
1281.5
 20
-75.5
 21
-75.5
  0
LINE
  8
0
 10
1290.5
 11
1290.5
 20
0
 21
111.5
  0
LINE
  8
0
 10
1290.5
 11
1404
 20
111.5
 21
111.5
  0
LINE
  8
0
 10
1404
 11
1404
 20
111.5
 21
0
  0
LINE
  8
0
 10
1404
 11
1290.5
 20
0
 21
0
  0
LINE
  8
0
 10
1290.5
 11
1290.5
 20
115.5
 21
229
  0
LINE
  8
0
 10
1290.5
 11
1404
 20
229
 21
229
  0
LINE
  8
0
 10
1404
 11
1404
 20
229
 21
115.5
  0
LINE
  8
0
 10
1404
 11
1290.5
 20
115.5
 21
115.5
  0
LINE
  8
0
 10
1290.5
 11
1290.5
 20
233
 21
346.5
  0
LINE
  8
0
 10
1290.5
 11
1404
 20
346.5
 21
346.5
  0
LINE
  8
0
 10
1404
 11
1404
 20
346.5
 21
233
  0
LINE
  8
0
 10
1404
 11
1290.5
 20
233
 21
233
  0
LINE
  8
0
 10
1290.5
 11
1290.5
 20
350.5
 21
464
  0
LINE
  8
0
 10
1290.5
 11
1404
 20
464
 21
464
  0
LINE
  8
0
 10
1404
 11
1404
 20
464
 21
350.5
  0
LINE
  8
0
 10
1404
 11
1290.5
 20
350.5
 21
350.5
  0
LINE
  8
0
 10
1290.5
 11
1290.5
 20
468
 21
581.5
  0
LINE
  8
0
 10
1290.5
 11
1404
 20
581.5
 21
581.5
  0
LINE
  8
0
 10
1404
 11
1404
 20
581.5
 21
468
  0
LINE
  8
0
 10
1404
 11
1290.5
 20
468
 21
468
  0
LINE
  8
0
 10
1290.5
 11
1290.5
 20
585.5
 21
699
  0
LINE
  8
0
 10
1290.5
 11
1404
 20
699
 21
699
  0
LINE
  8
0
 10
1404
 11
1404
 20
699
 21
585.5
  0
LINE
  8
0
 10
1404
 11
1290.5
 20
585.5
 21
585.5
  0
LINE
  8
0
 10
1290.5
 11
1290.5
 20
703
 21
816.5
  0
LINE
  8
0
 10
1290.5
 11
1404
 20
816.5
 21
816.5
  0
LINE
  8
0
 10
1404
 11
1404
 20
816.5
 21
703
  0
LINE
  8
0
 10
1404
 11
1290.5
 20
703
 21
703
  0
LINE
  8
0
 10
1290.5
 11
1290.5
 20
820.5
 21
932
  0
LINE
  8
0
 10
1290.5
 11
1404
 20
932
 21
932
  0
LINE
  8
0
 10
1404
 11
1404
 20
932
 21
820.5
  0
LINE
  8
0
 10
1404
 11
1290.5
 20
820.5
 21
820.5
  0
LINE
  8
0
 10
1316.5
 11
1316.5
 20
-117.5
 21
-110.499
  0
LINE
  8
0
 10
1316.5
 11
1323.5
 20
-110.499
 21
-110.499
  0
LINE
  8
0
 10
1323.5
 11
1323.5
 20
-110.499
 21
-75.5
  0
LINE
  8
0
 10
1323.5
 11
1316.5
 20
-75.5
 21
-75.5
  0
LINE
  8
0
 10
1316.5
 11
1316.5
 20
-75.5
 21
-68.499
  0
LINE
  8
0
 10
1316.5
 11
1330.5
 20
-68.499
 21
-68.499
  0
LINE
  8
0
 10
1330.5
 11
1330.5
 20
-68.499
 21
-110.499
  0
LINE
  8
0
 10
1330.5
 11
1337.5
 20
-110.499
 21
-110.499
  0
LINE
  8
0
 10
1337.5
 11
1337.5
 20
-110.499
 21
-117.5
  0
LINE
  8
0
 10
1337.5
 11
1316.5
 20
-117.5
 21
-117.5
  0
LINE
  8
0
 10
1358.5
 11
1358.5
 20
-117.5
 21
-110.499
  0
LINE
  8
0
 10
1358.5
 11
1365.5
 20
-110.499
 21
-110.499
  0
LINE
  8
0
 10
1365.5
 11
1365.5
 20
-110.499
 21
-75.5
  0
LINE
  8
0
 10
1365.5
 11
1358.5
 20
-75.5
 21
-75.5
  0
LINE
  8
0
 10
1358.5
 11
1358.5
 20
-75.5
 21
-68.499
  0
LINE
  8
0
 10
1358.5
 11
1372.5
 20
-68.499
 21
-68.499
  0
LINE
  8
0
 10
1372.5
 11
1372.5
 20
-68.499
 21
-110.499
  0
LINE
  8
0
 10
1372.5
 11
1379.5
 20
-110.499
 21
-110.499
  0
LINE
  8
0
 10
1379.5
 11
1379.5
 20
-110.499
 21
-117.5
  0
LINE
  8
0
 10
1379.5
 11
1358.5
 20
-117.5
 21
-117.5
  0
LINE
  8
0
 10
1393.5
 11
1393.5
 20
-110.5
 21
-89.499
  0
LINE
  8
0
 10
1393.5
 11
1400.5
 20
-89.499
 21
-89.499
  0
LINE
  8
0
 10
1400.5
 11
1400.5
 20
-89.499
 21
-82.499
  0
LINE
  8
0
 10
1400.5
 11
1421.5
 20
-82.499
 21
-82.499
  0
LINE
  8
0
 10
1421.5
 11
1421.5
 20
-82.499
 21
-89.499
  0
LINE
  8
0
 10
1421.5
 11
1428.5
 20
-89.499
 21
-89.499
  0
LINE
  8
0
 10
1428.5
 11
1428.5
 20
-89.499
 21
-103.5
  0
LINE
  8
0
 10
1428.5
 11
1400.5
 20
-103.5
 21
-103.5
  0
LINE
  8
0
 10
1400.5
 11
1400.5
 20
-103.5
 21
-110.5
  0
LINE
  8
0
 10
1400.5
 11
1421.5
 20
-110.5
 21
-110.499
  0
LINE
  8
0
 10
1421.5
 11
1421.5
 20
-110.499
 21
-117.5
  0
LINE
  8
0
 10
1421.5
 11
1400.5
 20
-117.5
 21
-117.5
  0
LINE
  8
0
 10
1400.5
 11
1393.5
 20
-117.5
 21
-110.5
  0
LINE
  8
0
 10
1408
 11
1408
 20
0
 21
111.5
  0
LINE
  8
0
 10
1408
 11
1521.5
 20
111.5
 21
111.5
  0
LINE
  8
0
 10
1521.5
 11
1521.5
 20
111.5
 21
0
  0
LINE
  8
0
 10
1521.5
 11
1408
 20
0
 21
0
  0
LINE
  8
0
 10
1408
 11
1408
 20
115.5
 21
229
  0
LINE
  8
0
 10
1408
 11
1521.5
 20
229
 21
229
  0
LINE
  8
0
 10
1521.5
 11
1521.5
 20
229
 21
115.5
  0
LINE
  8
0
 10
1521.5
 11
1408
 20
115.5
 21
115.5
  0
LINE
  8
0
 10
1408
 11
1408
 20
233
 21
346.5
  0
LINE
  8
0
 10
1408
 11
1521.5
 20
346.5
 21
346.5
  0
LINE
  8
0
 10
1521.5
 11
1521.5
 20
346.5
 21
233
  0
LINE
  8
0
 10
1521.5
 11
1408
 20
233
 21
233
  0
LINE
  8
0
 10
1408
 11
1408
 20
350.5
 21
464
  0
LINE
  8
0
 10
1408
 11
1521.5
 20
464
 21
464
  0
LINE
  8
0
 10
1521.5
 11
1521.5
 20
464
 21
350.5
  0
LINE
  8
0
 10
1521.5
 11
1408
 20
350.5
 21
350.5
  0
LINE
  8
0
 10
1408
 11
1408
 20
468
 21
581.5
  0
LINE
  8
0
 10
1408
 11
1521.5
 20
581.5
 21
581.5
  0
LINE
  8
0
 10
1521.5
 11
1521.5
 20
581.5
 21
468
  0
LINE
  8
0
 10
1521.5
 11
1408
 20
468
 21
468
  0
LINE
  8
0
 10
1408
 11
1408
 20
585.5
 21
699
  0
LINE
  8
0
 10
1408
 11
1521.5
 20
699
 21
699
  0
LINE
  8
0
 10
1521.5
 11
1521.5
 20
699
 21
585.5
  0
LINE
  8
0
 10
1521.5
 11
1408
 20
585.5
 21
585.5
  0
LINE
  8
0
 10
1408
 11
1408
 20
703
 21
816.5
  0
LINE
  8
0
 10
1408
 11
1521.5
 20
816.5
 21
816.5
  0
LINE
  8
0
 10
1521.5
 11
1521.5
 20
816.5
 21
703
  0
LINE
  8
0
 10
1521.5
 11
1408
 20
703
 21
703
  0
LINE
  8
0
 10
1408
 11
1408
 20
820.5
 21
932
  0
LINE
  8
0
 10
1408
 11
1521.5
 20
932
 21
932
  0
LINE
  8
0
 10
1521.5
 11
1521.5
 20
932
 21
820.5
  0
LINE
  8
0
 10
1521.5
 11
1408
 20
820.5
 21
820.5
  0
LINE
  8
0
 10
1435.5
 11
1435.5
 20
-110.5
 21
-89.499
  0
LINE
  8
0
 10
1435.5
 11
1442.5
 20
-89.499
 21
-89.499
  0
LINE
  8
0
 10
1442.5
 11
1442.5
 20
-89.499
 21
-82.499
  0
LINE
  8
0
 10
1442.5
 11
1456.5
 20
-82.499
 21
-82.499
  0
LINE
  8
0
 10
1456.5
 11
1456.5
 20
-82.499
 21
-89.499
  0
LINE
  8
0
 10
1456.5
 11
1463.5
 20
-89.499
 21
-89.499
  0
LINE
  8
0
 10
1463.5
 11
1463.5
 20
-89.499
 21
-68.499
  0
LINE
  8
0
 10
1463.5
 11
1470.5
 20
-68.499
 21
-68.499
  0
LINE
  8
0
 10
1470.5
 11
1470.5
 20
-68.499
 21
-117.5
  0
LINE
  8
0
 10
1470.5
 11
1442.5
 20
-117.5
 21
-117.5
  0
LINE
  8
0
 10
1442.5
 11
1442.5
 20
-117.5
 21
-110.5
  0
LINE
  8
0
 10
1442.5
 11
1435.5
 20
-110.5
 21
-110.5
  0
LINE
  8
0
 10
1456.5
 11
1463.5
 20
-96.5
 21
-96.5
  0
LINE
  8
0
 10
1463.5
 11
1463.5
 20
-96.5
 21
-110.499
  0
LINE
  8
0
 10
1463.5
 11
1456.5
 20
-110.499
 21
-96.5
  0
LINE
  8
0
 10
1525.5
 11
1525.5
 20
0
 21
111.5
  0
LINE
  8
0
 10
1525.5
 11
1639
 20
111.5
 21
111.5
  0
LINE
  8
0
 10
1639
 11
1639
 20
111.5
 21
0
  0
LINE
  8
0
 10
1639
 11
1525.5
 20
0
 21
0
  0
LINE
  8
0
 10
1525.5
 11
1525.5
 20
115.5
 21
229
  0
LINE
  8
0
 10
1525.5
 11
1639
 20
229
 21
229
  0
LINE
  8
0
 10
1639
 11
1639
 20
229
 21
115.5
  0
LINE
  8
0
 10
1639
 11
1525.5
 20
115.5
 21
115.5
  0
LINE
  8
0
 10
1525.5
 11
1525.5
 20
233
 21
346.5
  0
LINE
  8
0
 10
1525.5
 11
1639
 20
346.5
 21
346.5
  0
LINE
  8
0
 10
1639
 11
1639
 20
346.5
 21
233
  0
LINE
  8
0
 10
1639
 11
1525.5
 20
233
 21
233
  0
LINE
  8
0
 10
1525.5
 11
1525.5
 20
350.5
 21
464
  0
LINE
  8
0
 10
1525.5
 11
1639
 20
464
 21
464
  0
LINE
  8
0
 10
1639
 11
1639
 20
464
 21
350.5
  0
LINE
  8
0
 10
1639
 11
1525.5
 20
350.5
 21
350.5
  0
LINE
  8
0
 10
1525.5
 11
1525.5
 20
468
 21
581.5
  0
LINE
  8
0
 10
1525.5
 11
1639
 20
581.5
 21
581.5
  0
LINE
  8
0
 10
1639
 11
1639
 20
581.5
 21
468
  0
LINE
  8
0
 10
1639
 11
1525.5
 20
468
 21
468
  0
LINE
  8
0
 10
1525.5
 11
1525.5
 20
585.5
 21
699
  0
LINE
  8
0
 10
1525.5
 11
1639
 20
699
 21
699
  0
LINE
  8
0
 10
1639
 11
1639
 20
699
 21
585.5
  0
LINE
  8
0
 10
1639
 11
1525.5
 20
585.5
 21
585.5
  0
LINE
  8
0
 10
1525.5
 11
1525.5
 20
703
 21
816.5
  0
LINE
  8
0
 10
1525.5
 11
1639
 20
816.5
 21
816.5
  0
LINE
  8
0
 10
1639
 11
1639
 20
816.5
 21
703
  0
LINE
  8
0
 10
1639
 11
1525.5
 20
703
 21
703
  0
LINE
  8
0
 10
1525.5
 11
1525.5
 20
820.5
 21
932
  0
LINE
  8
0
 10
1525.5
 11
1639
 20
932
 21
932
  0
LINE
  8
0
 10
1639
 11
1639
 20
932
 21
820.5
  0
LINE
  8
0
 10
1639
 11
1525.5
 20
820.5
 21
820.5
  0
LINE
  8
0
 10
1643
 11
1643
 20
0
 21
111.5
  0
LINE
  8
0
 10
1643
 11
1756.5
 20
111.5
 21
111.5
  0
LINE
  8
0
 10
1756.5
 11
1756.5
 20
111.5
 21
0
  0
LINE
  8
0
 10
1756.5
 11
1643
 20
0
 21
0
  0
LINE
  8
0
 10
1643
 11
1643
 20
115.5
 21
229
  0
LINE
  8
0
 10
1643
 11
1756.5
 20
229
 21
229
  0
LINE
  8
0
 10
1756.5
 11
1756.5
 20
229
 21
115.5
  0
LINE
  8
0
 10
1756.5
 11
1643
 20
115.5
 21
115.5
  0
LINE
  8
0
 10
1643
 11
1643
 20
233
 21
346.5
  0
LINE
  8
0
 10
1643
 11
1756.5
 20
346.5
 21
346.5
  0
LINE
  8
0
 10
1756.5
 11
1756.5
 20
346.5
 21
233
  0
LINE
  8
0
 10
1756.5
 11
1643
 20
233
 21
233
  0
LINE
  8
0
 10
1643
 11
1643
 20
350.5
 21
464
  0
LINE
  8
0
 10
1643
 11
1756.5
 20
464
 21
464
  0
LINE
  8
0
 10
1756.5
 11
1756.5
 20
464
 21
350.5
  0
LINE
  8
0
 10
1756.5
 11
1643
 20
350.5
 21
350.5
  0
LINE
  8
0
 10
1643
 11
1643
 20
468
 21
581.5
  0
LINE
  8
0
 10
1643
 11
1756.5
 20
581.5
 21
581.5
  0
LINE
  8
0
 10
1756.5
 11
1756.5
 20
581.5
 21
468
  0
LINE
  8
0
 10
1756.5
 11
1643
 20
468
 21
468
  0
LINE
  8
0
 10
1643
 11
1643
 20
585.5
 21
699
  0
LINE
  8
0
 10
1643
 11
1756.5
 20
699
 21
699
  0
LINE
  8
0
 10
1756.5
 11
1756.5
 20
699
 21
585.5
  0
LINE
  8
0
 10
1756.5
 11
1643
 20
585.5
 21
585.5
  0
LINE
  8
0
 10
1643
 11
1643
 20
703
 21
816.5
  0
LINE
  8
0
 10
1643
 11
1756.5
 20
816.5
 21
816.5
  0
LINE
  8
0
 10
1756.5
 11
1756.5
 20
816.5
 21
703
  0
LINE
  8
0
 10
1756.5
 11
1643
 20
703
 21
703
  0
LINE
  8
0
 10
1643
 11
1643
 20
820.5
 21
932
  0
LINE
  8
0
 10
1643
 11
1756.5
 20
932
 21
932
  0
LINE
  8
0
 10
1756.5
 11
1756.5
 20
932
 21
820.5
  0
LINE
  8
0
 10
1756.5
 11
1643
 20
820.5
 21
820.5
  0
LINE
  8
0
 10
1760.5
 11
1760.5
 20
0
 21
111.5
  0
LINE
  8
0
 10
1760.5
 11
1874
 20
111.5
 21
111.5
  0
LINE
  8
0
 10
1874
 11
1874
 20
111.5
 21
0
  0
LINE
  8
0
 10
1874
 11
1760.5
 20
0
 21
0
  0
LINE
  8
0
 10
1760.5
 11
1760.5
 20
115.5
 21
229
  0
LINE
  8
0
 10
1760.5
 11
1874
 20
229
 21
229
  0
LINE
  8
0
 10
1874
 11
1874
 20
229
 21
115.5
  0
LINE
  8
0
 10
1874
 11
1760.5
 20
115.5
 21
115.5
  0
LINE
  8
0
 10
1760.5
 11
1760.5
 20
233
 21
346.5
  0
LINE
  8
0
 10
1760.5
 11
1874
 20
346.5
 21
346.5
  0
LINE
  8
0
 10
1874
 11
1874
 20
346.5
 21
233
  0
LINE
  8
0
 10
1874
 11
1760.5
 20
233
 21
233
  0
LINE
  8
0
 10
1760.5
 11
1760.5
 20
350.5
 21
464
  0
LINE
  8
0
 10
1760.5
 11
1874
 20
464
 21
464
  0
LINE
  8
0
 10
1874
 11
1874
 20
464
 21
350.5
  0
LINE
  8
0
 10
1874
 11
1760.5
 20
350.5
 21
350.5
  0
LINE
  8
0
 10
1760.5
 11
1760.5
 20
468
 21
581.5
  0
LINE
  8
0
 10
1760.5
 11
1874
 20
581.5
 21
581.5
  0
LINE
  8
0
 10
1874
 11
1874
 20
581.5
 21
468
  0
LINE
  8
0
 10
1874
 11
1760.5
 20
468
 21
468
  0
LINE
  8
0
 10
1760.5
 11
1760.5
 20
585.5
 21
699
  0
LINE
  8
0
 10
1760.5
 11
1874
 20
699
 21
699
  0
LINE
  8
0
 10
1874
 11
1874
 20
699
 21
585.5
  0
LINE
  8
0
 10
1874
 11
1760.5
 20
585.5
 21
585.5
  0
LINE
  8
0
 10
1760.5
 11
1760.5
 20
703
 21
816.5
  0
LINE
  8
0
 10
1760.5
 11
1874
 20
816.5
 21
816.5
  0
LINE
  8
0
 10
1874
 11
1874
 20
816.5
 21
703
  0
LINE
  8
0
 10
1874
 11
1760.5
 20
703
 21
703
  0
LINE
  8
0
 10
1760.5
 11
1760.5
 20
820.5
 21
932
  0
LINE
  8
0
 10
1760.5
 11
1874
 20
932
 21
932
  0
LINE
  8
0
 10
1874
 11
1874
 20
932
 21
820.5
  0
LINE
  8
0
 10
1874
 11
1760.5
 20
820.5
 21
820.5
  0
LINE
  8
0
 10
1878
 11
1878
 20
0
 21
111.5
  0
LINE
  8
0
 10
1878
 11
1989.5
 20
111.5
 21
111.5
  0
LINE
  8
0
 10
1989.5
 11
1989.5
 20
111.5
 21
0
  0
LINE
  8
0
 10
1989.5
 11
1878
 20
0
 21
0
  0
LINE
  8
0
 10
1878
 11
1878
 20
115.5
 21
229
  0
LINE
  8
0
 10
1878
 11
1989.5
 20
229
 21
229
  0
LINE
  8
0
 10
1989.5
 11
1989.5
 20
229
 21
115.5
  0
LINE
  8
0
 10
1989.5
 11
1878
 20
115.5
 21
115.5
  0
LINE
  8
0
 10
1878
 11
1878
 20
233
 21
346.5
  0
LINE
  8
0
 10
1878
 11
1989.5
 20
346.5
 21
346.5
  0
LINE
  8
0
 10
1989.5
 11
1989.5
 20
346.5
 21
233
  0
LINE
  8
0
 10
1989.5
 11
1878
 20
233
 21
233
  0
LINE
  8
0
 10
1878
 11
1878
 20
350.5
 21
464
  0
LINE
  8
0
 10
1878
 11
1989.5
 20
464
 21
464
  0
LINE
  8
0
 10
1989.5
 11
1989.5
 20
464
 21
350.5
  0
LINE
  8
0
 10
1989.5
 11
1878
 20
350.5
 21
350.5
  0
LINE
  8
0
 10
1878
 11
1878
 20
468
 21
581.5
  0
LINE
  8
0
 10
1878
 11
1989.5
 20
581.5
 21
581.5
  0
LINE
  8
0
 10
1989.5
 11
1989.5
 20
581.5
 21
468
  0
LINE
  8
0
 10
1989.5
 11
1878
 20
468
 21
468
  0
LINE
  8
0
 10
1878
 11
1878
 20
585.5
 21
699
  0
LINE
  8
0
 10
1878
 11
1989.5
 20
699
 21
699
  0
LINE
  8
0
 10
1989.5
 11
1989.5
 20
699
 21
585.5
  0
LINE
  8
0
 10
1989.5
 11
1878
 20
585.5
 21
585.5
  0
LINE
  8
0
 10
1878
 11
1878
 20
703
 21
816.5
  0
LINE
  8
0
 10
1878
 11
1989.5
 20
816.5
 21
816.5
  0
LINE
  8
0
 10
1989.5
 11
1989.5
 20
816.5
 21
703
  0
LINE
  8
0
 10
1989.5
 11
1878
 20
703
 21
703
  0
LINE
  8
0
 10
1878
 11
1878
 20
820.5
 21
932
  0
LINE
  8
0
 10
1878
 11
1989.5
 20
932
 21
932
  0
LINE
  8
0
 10
1989.5
 11
1989.5
 20
932
 21
820.5
  0
LINE
  8
0
 10
1989.5
 11
1878
 20
820.5
 21
820.5
  0
ENDSEC
  0
SECTION
  2
OBJECTS
  0
DICTIONARY
  0
ENDSEC
  0
EOF
